<svg xmlns="http://www.w3.org/2000/svg" width="498" height="568" viewBox="0 0 498 568" role="img" aria-label="証 — 無 の紋章">
<defs>
<linearGradient id="g" x1="0" y1="0" x2="1" y2="1"><stop offset="0" stop-color="hsl(330 75% 64%)"/><stop offset="1" stop-color="hsl(140 70% 56%)"/></linearGradient>
<radialGradient id="aura" cx="0.5" cy="0.46" r="0.6"><stop offset="0" stop-color="hsl(330 60% 22%)"/><stop offset="1" stop-color="#0a0910"/></radialGradient>
</defs>
<rect width="498" height="568" fill="#0a0910"/>
<rect x="14" y="14" width="470" height="470" rx="18" fill="url(#aura)" stroke="hsl(330 50% 40%)" stroke-opacity="0.5" stroke-width="1.5"/>
<rect x="118" y="64" width="46" height="46" rx="9" fill="url(#g)"/>
<rect x="226" y="64" width="46" height="46" rx="9" fill="url(#g)"/>
<rect x="334" y="64" width="46" height="46" rx="9" fill="url(#g)"/>
<rect x="172" y="118" width="46" height="46" rx="9" fill="url(#g)"/>
<rect x="226" y="118" width="46" height="46" rx="9" fill="url(#g)"/>
<rect x="280" y="118" width="46" height="46" rx="9" fill="url(#g)"/>
<rect x="226" y="172" width="46" height="46" rx="9" fill="url(#g)"/>
<rect x="172" y="226" width="46" height="46" rx="9" fill="url(#g)"/>
<rect x="226" y="226" width="46" height="46" rx="9" fill="url(#g)"/>
<rect x="280" y="226" width="46" height="46" rx="9" fill="url(#g)"/>
<rect x="64" y="280" width="46" height="46" rx="9" fill="url(#g)"/>
<rect x="388" y="280" width="46" height="46" rx="9" fill="url(#g)"/>
<rect x="64" y="334" width="46" height="46" rx="9" fill="url(#g)"/>
<rect x="172" y="334" width="46" height="46" rx="9" fill="url(#g)"/>
<rect x="226" y="334" width="46" height="46" rx="9" fill="url(#g)"/>
<rect x="280" y="334" width="46" height="46" rx="9" fill="url(#g)"/>
<rect x="388" y="334" width="46" height="46" rx="9" fill="url(#g)"/>
<rect x="64" y="388" width="46" height="46" rx="9" fill="url(#g)"/>
<rect x="172" y="388" width="46" height="46" rx="9" fill="url(#g)"/>
<rect x="226" y="388" width="46" height="46" rx="9" fill="url(#g)"/>
<rect x="280" y="388" width="46" height="46" rx="9" fill="url(#g)"/>
<rect x="388" y="388" width="46" height="46" rx="9" fill="url(#g)"/>
<text x="249" y="532" font-family="ui-monospace,monospace" font-size="13" fill="hsl(330 30% 70%)" text-anchor="middle" letter-spacing="2">6dd1c8ca6bd83eab5469ed3278abf1c7</text>
<text x="249" y="552" font-family="ui-monospace,monospace" font-size="13" fill="hsl(330 30% 55%)" text-anchor="middle" letter-spacing="2">684b9f5a04435b79f7d31eeec9fc57ea</text>
</svg>