<svg xmlns="http://www.w3.org/2000/svg" viewBox="0 0 640 320" font-family="sans-serif"><rect width="640" height="320" rx="12" fill="#141814"/><path d="M 20 60 Q 160 56, 320 60 T 620 60" fill="none" stroke="#222a22" stroke-width="1"/><path d="M 20 76 Q 160 72, 320 76 T 620 76" fill="none" stroke="#222a22" stroke-width="1"/><path d="M 20 92 Q 160 88, 320 92 T 620 92" fill="none" stroke="#222a22" stroke-width="1"/><path d="M 20 108 Q 160 104, 320 108 T 620 108" fill="none" stroke="#222a22" stroke-width="1"/><path d="M 20 124 Q 160 120, 320 124 T 620 124" fill="none" stroke="#222a22" stroke-width="1"/><path d="M 20 140 Q 160 136, 320 140 T 620 140" fill="none" stroke="#222a22" stroke-width="1"/><path d="M 20 156 Q 160 152, 320 156 T 620 156" fill="none" stroke="#222a22" stroke-width="1"/><path d="M 20 172 Q 160 168, 320 172 T 620 172" fill="none" stroke="#222a22" stroke-width="1"/><path d="M 20 188 Q 160 184, 320 188 T 620 188" fill="none" stroke="#222a22" stroke-width="1"/><path d="M 20 204 Q 160 200, 320 204 T 620 204" fill="none" stroke="#222a22" stroke-width="1"/><path d="M 20 220 Q 160 216, 320 220 T 620 220" fill="none" stroke="#222a22" stroke-width="1"/><path d="M 20 236 Q 160 232, 320 236 T 620 236" fill="none" stroke="#222a22" stroke-width="1"/><path d="M 20 252 Q 160 248, 320 252 T 620 252" fill="none" stroke="#222a22" stroke-width="1"/><path d="M 20 268 Q 160 264, 320 268 T 620 268" fill="none" stroke="#222a22" stroke-width="1"/><path d="M 20 284 Q 160 280, 320 284 T 620 284" fill="none" stroke="#222a22" stroke-width="1"/><ellipse cx="171.3" cy="169.4" rx="47.6" ry="35.3" fill="none" stroke="#28302687" stroke-width="1"/><ellipse cx="171.3" cy="169.4" rx="58.6" ry="43.3" fill="none" stroke="#28302687" stroke-width="1"/><ellipse cx="232.9" cy="203.1" rx="45.1" ry="33.8" fill="none" stroke="#28302687" stroke-width="1"/><ellipse cx="232.9" cy="203.1" rx="56.1" ry="41.8" fill="none" stroke="#28302687" stroke-width="1"/><ellipse cx="349.2" cy="144.2" rx="60.5" ry="26.3" fill="none" stroke="#28302687" stroke-width="1"/><ellipse cx="349.2" cy="144.2" rx="71.5" ry="34.3" fill="none" stroke="#28302687" stroke-width="1"/><ellipse cx="491.3" cy="233" rx="46.6" ry="34.4" fill="none" stroke="#28302687" stroke-width="1"/><ellipse cx="491.3" cy="233" rx="57.6" ry="42.4" fill="none" stroke="#28302687" stroke-width="1"/><circle cx="475" cy="201.7" r="6.8" fill="hsl(127.4 38% 34%)" opacity="0.85"/><circle cx="477.8" cy="199.8" r="7.9" fill="hsl(127.4 38% 34%)" opacity="0.85"/><circle cx="476.2" cy="196.2" r="8.1" fill="hsl(127.4 38% 34%)" opacity="0.85"/><g fill="#e8ecdf" opacity="0.9"><circle cx="477.4" cy="187.3" r="1.1"/><circle cx="481.4" cy="186.3" r="1.1"/><circle cx="479.4" cy="184.3" r="1.1"/></g><circle cx="324.3" cy="116.7" r="7.5" fill="hsl(107.6 38% 24.3%)" opacity="0.85"/><circle cx="320.4" cy="119.8" r="5" fill="hsl(107.6 38% 24.3%)" opacity="0.85"/><circle cx="323.5" cy="120.5" r="5.4" fill="hsl(107.6 38% 24.3%)" opacity="0.85"/><circle cx="457.3" cy="214.2" r="6.1" fill="hsl(114.2 38% 35.3%)" opacity="0.85"/><circle cx="449.4" cy="207.8" r="7.9" fill="hsl(114.2 38% 35.3%)" opacity="0.85"/><circle cx="459.9" cy="210.1" r="6.2" fill="hsl(114.2 38% 35.3%)" opacity="0.85"/><circle cx="356.7" cy="114.7" r="6.9" fill="hsl(95.4 38% 26.4%)" opacity="0.85"/><circle cx="352.2" cy="115.8" r="5.5" fill="hsl(95.4 38% 26.4%)" opacity="0.85"/><circle cx="352.2" cy="113.8" r="5" fill="hsl(95.4 38% 26.4%)" opacity="0.85"/><circle cx="209.2" cy="139.7" r="6.9" fill="hsl(122 38% 35.1%)" opacity="0.85"/><circle cx="210" cy="140.1" r="7.8" fill="hsl(122 38% 35.1%)" opacity="0.85"/><circle cx="212" cy="142.2" r="6" fill="hsl(122 38% 35.1%)" opacity="0.85"/><circle cx="182.8" cy="172.2" r="6" fill="hsl(107.7 38% 26.8%)" opacity="0.85"/><circle cx="189.4" cy="171" r="5" fill="hsl(107.7 38% 26.8%)" opacity="0.85"/><circle cx="184.5" cy="171.7" r="7.7" fill="hsl(107.7 38% 26.8%)" opacity="0.85"/><circle cx="267.9" cy="176.2" r="7.2" fill="hsl(114.1 38% 30.5%)" opacity="0.85"/><circle cx="263.8" cy="176.8" r="7.9" fill="hsl(114.1 38% 30.5%)" opacity="0.85"/><circle cx="265.2" cy="175.3" r="7" fill="hsl(114.1 38% 30.5%)" opacity="0.85"/><circle cx="152.9" cy="140.7" r="5.7" fill="hsl(130.8 38% 24.4%)" opacity="0.85"/><circle cx="152.3" cy="138.5" r="4.5" fill="hsl(130.8 38% 24.4%)" opacity="0.85"/><circle cx="151.7" cy="138.6" r="7.3" fill="hsl(130.8 38% 24.4%)" opacity="0.85"/><circle cx="191" cy="135.7" r="4.9" fill="hsl(118.6 38% 28.1%)" opacity="0.85"/><circle cx="193.7" cy="139.4" r="4.8" fill="hsl(118.6 38% 28.1%)" opacity="0.85"/><circle cx="194.9" cy="137.1" r="6.4" fill="hsl(118.6 38% 28.1%)" opacity="0.85"/><circle cx="214.5" cy="161.8" r="7.3" fill="hsl(127 38% 27.3%)" opacity="0.85"/><circle cx="222.7" cy="164.9" r="4.7" fill="hsl(127 38% 27.3%)" opacity="0.85"/><circle cx="217.8" cy="162.4" r="5" fill="hsl(127 38% 27.3%)" opacity="0.85"/><circle cx="136.8" cy="140.1" r="4.9" fill="hsl(117.2 38% 27.7%)" opacity="0.85"/><circle cx="138.7" cy="141.6" r="4.3" fill="hsl(117.2 38% 27.7%)" opacity="0.85"/><circle cx="137.3" cy="140.2" r="4.4" fill="hsl(117.2 38% 27.7%)" opacity="0.85"/><circle cx="333.2" cy="122.9" r="4.5" fill="hsl(133.4 38% 29.6%)" opacity="0.85"/><circle cx="335" cy="122.6" r="4.3" fill="hsl(133.4 38% 29.6%)" opacity="0.85"/><circle cx="329.8" cy="122.7" r="6.7" fill="hsl(133.4 38% 29.6%)" opacity="0.85"/><circle cx="445.7" cy="207.2" r="5.6" fill="hsl(99.2 38% 26.6%)" opacity="0.85"/><circle cx="440.5" cy="210" r="6.3" fill="hsl(99.2 38% 26.6%)" opacity="0.85"/><circle cx="445.5" cy="207.8" r="6.8" fill="hsl(99.2 38% 26.6%)" opacity="0.85"/><circle cx="442.2" cy="219.1" r="6.7" fill="hsl(109.7 38% 28.7%)" opacity="0.85"/><circle cx="435.4" cy="215.5" r="6.5" fill="hsl(109.7 38% 28.7%)" opacity="0.85"/><circle cx="437.4" cy="219.4" r="7" fill="hsl(109.7 38% 28.7%)" opacity="0.85"/><circle cx="393.3" cy="126.4" r="5.4" fill="hsl(119.5 38% 31.2%)" opacity="0.85"/><circle cx="395.7" cy="128.8" r="5.7" fill="hsl(119.5 38% 31.2%)" opacity="0.85"/><circle cx="387.7" cy="130.7" r="6.5" fill="hsl(119.5 38% 31.2%)" opacity="0.85"/><circle cx="211.2" cy="159.4" r="5.2" fill="hsl(96.2 38% 24.4%)" opacity="0.85"/><circle cx="214.1" cy="163.8" r="5.4" fill="hsl(96.2 38% 24.4%)" opacity="0.85"/><circle cx="208.9" cy="162.9" r="5.3" fill="hsl(96.2 38% 24.4%)" opacity="0.85"/><circle cx="197.1" cy="169.6" r="4.6" fill="hsl(120.3 38% 27.3%)" opacity="0.85"/><circle cx="197.8" cy="168.5" r="4" fill="hsl(120.3 38% 27.3%)" opacity="0.85"/><circle cx="200.1" cy="172.7" r="5.1" fill="hsl(120.3 38% 27.3%)" opacity="0.85"/><circle cx="130.8" cy="149.6" r="5.1" fill="hsl(118 38% 34.1%)" opacity="0.85"/><circle cx="126.1" cy="145.5" r="4.4" fill="hsl(118 38% 34.1%)" opacity="0.85"/><circle cx="128.8" cy="148.3" r="4.5" fill="hsl(118 38% 34.1%)" opacity="0.85"/><circle cx="154.4" cy="125.8" r="4.1" fill="hsl(132.4 38% 24.7%)" opacity="0.85"/><circle cx="160.4" cy="127.5" r="5.2" fill="hsl(132.4 38% 24.7%)" opacity="0.85"/><circle cx="160" cy="128.4" r="5.6" fill="hsl(132.4 38% 24.7%)" opacity="0.85"/><circle cx="352.9" cy="114.9" r="3.5" fill="hsl(110.4 38% 28.9%)" opacity="0.85"/><circle cx="348.1" cy="115.3" r="5.1" fill="hsl(110.4 38% 28.9%)" opacity="0.85"/><circle cx="353.2" cy="116.6" r="4.4" fill="hsl(110.4 38% 28.9%)" opacity="0.85"/><circle cx="450.6" cy="200.3" r="3.4" fill="hsl(98.4 38% 28%)" opacity="0.85"/><circle cx="449" cy="200.7" r="3.4" fill="hsl(98.4 38% 28%)" opacity="0.85"/><circle cx="449.3" cy="200.2" r="4.3" fill="hsl(98.4 38% 28%)" opacity="0.85"/><circle cx="204" cy="135.6" r="3.9" fill="hsl(120.7 38% 26.6%)" opacity="0.85"/><circle cx="206" cy="135.1" r="3.4" fill="hsl(120.7 38% 26.6%)" opacity="0.85"/><circle cx="202.4" cy="132.3" r="3.6" fill="hsl(120.7 38% 26.6%)" opacity="0.85"/><circle cx="284.5" cy="188.7" r="4.5" fill="hsl(113.9 38% 26.4%)" opacity="0.85"/><circle cx="284.6" cy="187.3" r="3.7" fill="hsl(113.9 38% 26.4%)" opacity="0.85"/><circle cx="286.6" cy="189.4" r="3.7" fill="hsl(113.9 38% 26.4%)" opacity="0.85"/><circle cx="183" cy="190.7" r="3.5" fill="hsl(132.4 38% 33.9%)" opacity="0.85"/><circle cx="183" cy="188.7" r="4.2" fill="hsl(132.4 38% 33.9%)" opacity="0.85"/><circle cx="183.3" cy="189.4" r="3.8" fill="hsl(132.4 38% 33.9%)" opacity="0.85"/><circle cx="96.8" cy="148.8" r="3.5" fill="hsl(105.9 38% 33%)" opacity="0.85"/><circle cx="98.4" cy="151" r="3.2" fill="hsl(105.9 38% 33%)" opacity="0.85"/><circle cx="99.9" cy="149.1" r="3.6" fill="hsl(105.9 38% 33%)" opacity="0.85"/><circle cx="289.5" cy="128.6" r="2" fill="hsl(134.9 38% 32.7%)" opacity="0.85"/><circle cx="290.5" cy="130" r="2.5" fill="hsl(134.9 38% 32.7%)" opacity="0.85"/><circle cx="293" cy="129.2" r="3" fill="hsl(134.9 38% 32.7%)" opacity="0.85"/><circle cx="466.7" cy="186.6" r="3.1" fill="hsl(108.9 38% 33.8%)" opacity="0.85"/><circle cx="467.6" cy="187.3" r="2.8" fill="hsl(108.9 38% 33.8%)" opacity="0.85"/><circle cx="465.9" cy="185.7" r="2.8" fill="hsl(108.9 38% 33.8%)" opacity="0.85"/><g transform="rotate(6 171.3 169.4)"><ellipse cx="171.3" cy="169.4" rx="36.6" ry="27.3" fill="#4c5150"/><ellipse cx="163.2" cy="161.2" rx="22" ry="13.7" fill="#5d6361"/></g><g transform="rotate(-3.3 232.9 203.1)"><ellipse cx="232.9" cy="203.1" rx="34.1" ry="25.8" fill="#4c5150"/><ellipse cx="225.4" cy="195.4" rx="20.4" ry="12.9" fill="#5d6361"/></g><g transform="rotate(-7.1 349.2 144.2)"><ellipse cx="349.2" cy="144.2" rx="49.5" ry="18.3" fill="#4c5150"/><ellipse cx="338.3" cy="138.7" rx="29.7" ry="9.2" fill="#5d6361"/></g><g transform="rotate(-4.2 491.3 233)"><ellipse cx="491.3" cy="233" rx="35.6" ry="26.4" fill="#4c5150"/><ellipse cx="483.5" cy="225" rx="21.4" ry="13.2" fill="#5d6361"/></g><path d="M 204.2 175.4 q -6 -10, -6 -12" fill="none" stroke="hsl(120 30% 34%)" stroke-width="1.6" stroke-linecap="round"/><path d="M 204.2 175.4 q 1 -14, 5 -19" fill="none" stroke="hsl(120 30% 34%)" stroke-width="1.6" stroke-linecap="round"/><path d="M 204.2 175.4 q 8 -18, 16 -26" fill="none" stroke="hsl(120 30% 34%)" stroke-width="1.6" stroke-linecap="round"/><path d="M 204.2 175.4 q 15 -14, 27 -19" fill="none" stroke="hsl(120 30% 34%)" stroke-width="1.6" stroke-linecap="round"/><path d="M 204.2 175.4 q 22 -10, 38 -12" fill="none" stroke="hsl(120 30% 34%)" stroke-width="1.6" stroke-linecap="round"/><text x="624" y="306" text-anchor="end" font-size="10" fill="#49543f">第11週 · 2026-06-12 から</text></svg>
