<svg xmlns="http://www.w3.org/2000/svg" viewBox="0 0 640 320" font-family="sans-serif"><rect width="640" height="320" rx="12" fill="#141814"/><path d="M 20 60 Q 160 56, 320 60 T 620 60" fill="none" stroke="#222a22" stroke-width="1"/><path d="M 20 76 Q 160 72, 320 76 T 620 76" fill="none" stroke="#222a22" stroke-width="1"/><path d="M 20 92 Q 160 88, 320 92 T 620 92" fill="none" stroke="#222a22" stroke-width="1"/><path d="M 20 108 Q 160 104, 320 108 T 620 108" fill="none" stroke="#222a22" stroke-width="1"/><path d="M 20 124 Q 160 120, 320 124 T 620 124" fill="none" stroke="#222a22" stroke-width="1"/><path d="M 20 140 Q 160 136, 320 140 T 620 140" fill="none" stroke="#222a22" stroke-width="1"/><path d="M 20 156 Q 160 152, 320 156 T 620 156" fill="none" stroke="#222a22" stroke-width="1"/><path d="M 20 172 Q 160 168, 320 172 T 620 172" fill="none" stroke="#222a22" stroke-width="1"/><path d="M 20 188 Q 160 184, 320 188 T 620 188" fill="none" stroke="#222a22" stroke-width="1"/><path d="M 20 204 Q 160 200, 320 204 T 620 204" fill="none" stroke="#222a22" stroke-width="1"/><path d="M 20 220 Q 160 216, 320 220 T 620 220" fill="none" stroke="#222a22" stroke-width="1"/><path d="M 20 236 Q 160 232, 320 236 T 620 236" fill="none" stroke="#222a22" stroke-width="1"/><path d="M 20 252 Q 160 248, 320 252 T 620 252" fill="none" stroke="#222a22" stroke-width="1"/><path d="M 20 268 Q 160 264, 320 268 T 620 268" fill="none" stroke="#222a22" stroke-width="1"/><path d="M 20 284 Q 160 280, 320 284 T 620 284" fill="none" stroke="#222a22" stroke-width="1"/><ellipse cx="171.3" cy="169.4" rx="47.6" ry="35.3" fill="none" stroke="#28302687" stroke-width="1"/><ellipse cx="171.3" cy="169.4" rx="58.6" ry="43.3" fill="none" stroke="#28302687" stroke-width="1"/><ellipse cx="232.9" cy="203.1" rx="45.1" ry="33.8" fill="none" stroke="#28302687" stroke-width="1"/><ellipse cx="232.9" cy="203.1" rx="56.1" ry="41.8" fill="none" stroke="#28302687" stroke-width="1"/><ellipse cx="349.2" cy="144.2" rx="60.5" ry="26.3" fill="none" stroke="#28302687" stroke-width="1"/><ellipse cx="349.2" cy="144.2" rx="71.5" ry="34.3" fill="none" stroke="#28302687" stroke-width="1"/><ellipse cx="491.3" cy="233" rx="46.6" ry="34.4" fill="none" stroke="#28302687" stroke-width="1"/><ellipse cx="491.3" cy="233" rx="57.6" ry="42.4" fill="none" stroke="#28302687" stroke-width="1"/><circle cx="474.3" cy="202.3" r="7.8" fill="hsl(127.4 38% 34%)" opacity="0.85"/><circle cx="477.5" cy="200.1" r="9.1" fill="hsl(127.4 38% 34%)" opacity="0.85"/><circle cx="475.7" cy="195.8" r="9.3" fill="hsl(127.4 38% 34%)" opacity="0.85"/><g fill="#e8ecdf" opacity="0.9"><circle cx="477.4" cy="185.9" r="1.1"/><circle cx="481.4" cy="184.9" r="1.1"/><circle cx="479.4" cy="182.9" r="1.1"/></g><circle cx="324.6" cy="116.7" r="8.6" fill="hsl(107.6 38% 24.3%)" opacity="0.85"/><circle cx="320.2" cy="120.2" r="5.8" fill="hsl(107.6 38% 24.3%)" opacity="0.85"/><circle cx="323.7" cy="121" r="6.2" fill="hsl(107.6 38% 24.3%)" opacity="0.85"/><circle cx="457.7" cy="214.7" r="7.1" fill="hsl(114.2 38% 35.3%)" opacity="0.85"/><circle cx="448.6" cy="207.3" r="9.1" fill="hsl(114.2 38% 35.3%)" opacity="0.85"/><circle cx="460.7" cy="210" r="7.1" fill="hsl(114.2 38% 35.3%)" opacity="0.85"/><circle cx="356.6" cy="114.9" r="8" fill="hsl(95.4 38% 26.4%)" opacity="0.85"/><circle cx="351.4" cy="116.1" r="6.4" fill="hsl(95.4 38% 26.4%)" opacity="0.85"/><circle cx="351.4" cy="113.8" r="5.8" fill="hsl(95.4 38% 26.4%)" opacity="0.85"/><circle cx="209.4" cy="139.9" r="8" fill="hsl(122 38% 35.1%)" opacity="0.85"/><circle cx="210.3" cy="140.4" r="9" fill="hsl(122 38% 35.1%)" opacity="0.85"/><circle cx="212.7" cy="142.8" r="7" fill="hsl(122 38% 35.1%)" opacity="0.85"/><circle cx="182" cy="172.1" r="7.1" fill="hsl(107.7 38% 26.8%)" opacity="0.85"/><circle cx="189.7" cy="170.7" r="5.9" fill="hsl(107.7 38% 26.8%)" opacity="0.85"/><circle cx="184" cy="171.5" r="9.1" fill="hsl(107.7 38% 26.8%)" opacity="0.85"/><circle cx="268" cy="176.5" r="8.5" fill="hsl(114.1 38% 30.5%)" opacity="0.85"/><circle cx="263.2" cy="177.1" r="9.3" fill="hsl(114.1 38% 30.5%)" opacity="0.85"/><circle cx="264.9" cy="175.4" r="8.2" fill="hsl(114.1 38% 30.5%)" opacity="0.85"/><circle cx="152.9" cy="141" r="6.8" fill="hsl(130.8 38% 24.4%)" opacity="0.85"/><circle cx="152.2" cy="138.4" r="5.4" fill="hsl(130.8 38% 24.4%)" opacity="0.85"/><circle cx="151.5" cy="138.5" r="8.7" fill="hsl(130.8 38% 24.4%)" opacity="0.85"/><circle cx="190.7" cy="135.5" r="5.9" fill="hsl(118.6 38% 28.1%)" opacity="0.85"/><circle cx="194" cy="140" r="5.7" fill="hsl(118.6 38% 28.1%)" opacity="0.85"/><circle cx="195.4" cy="137.2" r="7.6" fill="hsl(118.6 38% 28.1%)" opacity="0.85"/><circle cx="213.7" cy="161.7" r="8.9" fill="hsl(127 38% 27.3%)" opacity="0.85"/><circle cx="223.6" cy="165.4" r="5.7" fill="hsl(127 38% 27.3%)" opacity="0.85"/><circle cx="217.7" cy="162.4" r="6.1" fill="hsl(127 38% 27.3%)" opacity="0.85"/><circle cx="136.8" cy="140.1" r="6" fill="hsl(117.2 38% 27.7%)" opacity="0.85"/><circle cx="139.1" cy="141.9" r="5.3" fill="hsl(117.2 38% 27.7%)" opacity="0.85"/><circle cx="137.4" cy="140.2" r="5.4" fill="hsl(117.2 38% 27.7%)" opacity="0.85"/><circle cx="333.4" cy="123.5" r="5.5" fill="hsl(133.4 38% 29.6%)" opacity="0.85"/><circle cx="335.5" cy="123.1" r="5.3" fill="hsl(133.4 38% 29.6%)" opacity="0.85"/><circle cx="329.2" cy="123.3" r="8.1" fill="hsl(133.4 38% 29.6%)" opacity="0.85"/><circle cx="446.7" cy="206.9" r="6.9" fill="hsl(99.2 38% 26.6%)" opacity="0.85"/><circle cx="440.3" cy="210.4" r="7.8" fill="hsl(99.2 38% 26.6%)" opacity="0.85"/><circle cx="446.5" cy="207.7" r="8.5" fill="hsl(99.2 38% 26.6%)" opacity="0.85"/><circle cx="443" cy="219.6" r="8.3" fill="hsl(109.7 38% 28.7%)" opacity="0.85"/><circle cx="434.5" cy="215.1" r="8" fill="hsl(109.7 38% 28.7%)" opacity="0.85"/><circle cx="437" cy="220" r="8.7" fill="hsl(109.7 38% 28.7%)" opacity="0.85"/><circle cx="393.7" cy="125.8" r="6.9" fill="hsl(119.5 38% 31.2%)" opacity="0.85"/><circle cx="396.9" cy="128.8" r="7.3" fill="hsl(119.5 38% 31.2%)" opacity="0.85"/><circle cx="386.6" cy="131.3" r="8.2" fill="hsl(119.5 38% 31.2%)" opacity="0.85"/><circle cx="211.1" cy="158.8" r="6.6" fill="hsl(96.2 38% 24.4%)" opacity="0.85"/><circle cx="214.9" cy="164.3" r="6.9" fill="hsl(96.2 38% 24.4%)" opacity="0.85"/><circle cx="208.2" cy="163.2" r="6.7" fill="hsl(96.2 38% 24.4%)" opacity="0.85"/><circle cx="197" cy="169.2" r="6" fill="hsl(120.3 38% 27.3%)" opacity="0.85"/><circle cx="197.9" cy="167.7" r="5.2" fill="hsl(120.3 38% 27.3%)" opacity="0.85"/><circle cx="200.9" cy="173.3" r="6.7" fill="hsl(120.3 38% 27.3%)" opacity="0.85"/><circle cx="131.9" cy="150.3" r="6.6" fill="hsl(118 38% 34.1%)" opacity="0.85"/><circle cx="125.7" cy="144.9" r="5.8" fill="hsl(118 38% 34.1%)" opacity="0.85"/><circle cx="129.3" cy="148.6" r="5.8" fill="hsl(118 38% 34.1%)" opacity="0.85"/><circle cx="153.3" cy="125.4" r="5.6" fill="hsl(132.4 38% 24.7%)" opacity="0.85"/><circle cx="161.6" cy="127.7" r="7.1" fill="hsl(132.4 38% 24.7%)" opacity="0.85"/><circle cx="161" cy="129" r="7.7" fill="hsl(132.4 38% 24.7%)" opacity="0.85"/><circle cx="354" cy="114.3" r="4.8" fill="hsl(110.4 38% 28.9%)" opacity="0.85"/><circle cx="347.4" cy="114.9" r="7" fill="hsl(110.4 38% 28.9%)" opacity="0.85"/><circle cx="354.4" cy="116.6" r="6" fill="hsl(110.4 38% 28.9%)" opacity="0.85"/><circle cx="449.9" cy="201" r="4.7" fill="hsl(98.4 38% 28%)" opacity="0.85"/><circle cx="447.7" cy="201.5" r="4.6" fill="hsl(98.4 38% 28%)" opacity="0.85"/><circle cx="448.2" cy="200.9" r="5.9" fill="hsl(98.4 38% 28%)" opacity="0.85"/><circle cx="204.2" cy="136.3" r="5.6" fill="hsl(120.7 38% 26.6%)" opacity="0.85"/><circle cx="207.2" cy="135.7" r="4.9" fill="hsl(120.7 38% 26.6%)" opacity="0.85"/><circle cx="202" cy="131.6" r="5.3" fill="hsl(120.7 38% 26.6%)" opacity="0.85"/><circle cx="284.2" cy="188.9" r="6.5" fill="hsl(113.9 38% 26.4%)" opacity="0.85"/><circle cx="284.5" cy="186.9" r="5.3" fill="hsl(113.9 38% 26.4%)" opacity="0.85"/><circle cx="287.3" cy="189.9" r="5.4" fill="hsl(113.9 38% 26.4%)" opacity="0.85"/><circle cx="182.4" cy="190.9" r="5.7" fill="hsl(132.4 38% 33.9%)" opacity="0.85"/><circle cx="182.4" cy="187.6" r="6.7" fill="hsl(132.4 38% 33.9%)" opacity="0.85"/><circle cx="182.8" cy="188.8" r="6.2" fill="hsl(132.4 38% 33.9%)" opacity="0.85"/><circle cx="96" cy="148.2" r="5.7" fill="hsl(105.9 38% 33%)" opacity="0.85"/><circle cx="98.5" cy="151.6" r="5.2" fill="hsl(105.9 38% 33%)" opacity="0.85"/><circle cx="100.9" cy="148.6" r="5.7" fill="hsl(105.9 38% 33%)" opacity="0.85"/><circle cx="287.5" cy="128.2" r="4" fill="hsl(134.9 38% 32.7%)" opacity="0.85"/><circle cx="289.6" cy="131" r="4.9" fill="hsl(134.9 38% 32.7%)" opacity="0.85"/><circle cx="294.6" cy="129.3" r="6" fill="hsl(134.9 38% 32.7%)" opacity="0.85"/><circle cx="467.8" cy="187.1" r="6.2" fill="hsl(108.9 38% 33.8%)" opacity="0.85"/><circle cx="469.5" cy="188.5" r="5.6" fill="hsl(108.9 38% 33.8%)" opacity="0.85"/><circle cx="466.1" cy="185.4" r="5.6" fill="hsl(108.9 38% 33.8%)" opacity="0.85"/><circle cx="181" cy="190.2" r="5.8" fill="hsl(95.9 38% 34.1%)" opacity="0.85"/><circle cx="181.7" cy="187.9" r="3.8" fill="hsl(95.9 38% 34.1%)" opacity="0.85"/><circle cx="183.1" cy="188.2" r="5.5" fill="hsl(95.9 38% 34.1%)" opacity="0.85"/><circle cx="457.5" cy="199.6" r="4.6" fill="hsl(101.1 38% 31.3%)" opacity="0.85"/><circle cx="454.6" cy="199.8" r="5.4" fill="hsl(101.1 38% 31.3%)" opacity="0.85"/><circle cx="452.2" cy="201.1" r="4.6" fill="hsl(101.1 38% 31.3%)" opacity="0.85"/><circle cx="505.9" cy="200.6" r="5.1" fill="hsl(110.1 38% 24.1%)" opacity="0.85"/><circle cx="503.3" cy="200.5" r="4.2" fill="hsl(110.1 38% 24.1%)" opacity="0.85"/><circle cx="503.7" cy="203.7" r="5.4" fill="hsl(110.1 38% 24.1%)" opacity="0.85"/><circle cx="185.5" cy="181" r="5.3" fill="hsl(124.7 38% 30.8%)" opacity="0.85"/><circle cx="187.9" cy="181.3" r="3.9" fill="hsl(124.7 38% 30.8%)" opacity="0.85"/><circle cx="186.6" cy="179.4" r="3.9" fill="hsl(124.7 38% 30.8%)" opacity="0.85"/><circle cx="297.2" cy="182.2" r="3.5" fill="hsl(103 38% 26.8%)" opacity="0.85"/><circle cx="299.7" cy="184" r="4.1" fill="hsl(103 38% 26.8%)" opacity="0.85"/><circle cx="297.4" cy="183.6" r="4" fill="hsl(103 38% 26.8%)" opacity="0.85"/><circle cx="174.8" cy="117.7" r="3.4" fill="hsl(128.9 38% 31.2%)" opacity="0.85"/><circle cx="169.6" cy="119.5" r="4.2" fill="hsl(128.9 38% 31.2%)" opacity="0.85"/><circle cx="171" cy="118.5" r="3.2" fill="hsl(128.9 38% 31.2%)" opacity="0.85"/><circle cx="545.2" cy="207.3" r="3.1" fill="hsl(109.9 38% 30.9%)" opacity="0.85"/><circle cx="545.4" cy="205.8" r="3.3" fill="hsl(109.9 38% 30.9%)" opacity="0.85"/><circle cx="549.6" cy="206.1" r="3.9" fill="hsl(109.9 38% 30.9%)" opacity="0.85"/><circle cx="350.7" cy="117" r="2.6" fill="hsl(109.9 38% 32.7%)" opacity="0.85"/><circle cx="348.4" cy="115.9" r="2.8" fill="hsl(109.9 38% 32.7%)" opacity="0.85"/><circle cx="349.7" cy="115.4" r="2.6" fill="hsl(109.9 38% 32.7%)" opacity="0.85"/><circle cx="466.9" cy="206.3" r="3.2" fill="hsl(123.3 38% 30.9%)" opacity="0.85"/><circle cx="467.8" cy="205.9" r="3.2" fill="hsl(123.3 38% 30.9%)" opacity="0.85"/><circle cx="468.6" cy="206" r="3.7" fill="hsl(123.3 38% 30.9%)" opacity="0.85"/><circle cx="234.1" cy="148.6" r="2.6" fill="hsl(105.9 38% 29.9%)" opacity="0.85"/><circle cx="234.6" cy="149.5" r="2.5" fill="hsl(105.9 38% 29.9%)" opacity="0.85"/><circle cx="233.4" cy="146.8" r="3.3" fill="hsl(105.9 38% 29.9%)" opacity="0.85"/><circle cx="353.9" cy="99.4" r="3.3" fill="hsl(101.6 38% 31%)" opacity="0.85"/><circle cx="353.2" cy="100.4" r="2.9" fill="hsl(101.6 38% 31%)" opacity="0.85"/><circle cx="354.7" cy="101.9" r="2.6" fill="hsl(101.6 38% 31%)" opacity="0.85"/><circle cx="444.7" cy="210.5" r="2.5" fill="hsl(123.6 38% 30.7%)" opacity="0.85"/><circle cx="447.3" cy="209.8" r="2.1" fill="hsl(123.6 38% 30.7%)" opacity="0.85"/><circle cx="447.3" cy="210.4" r="2.9" fill="hsl(123.6 38% 30.7%)" opacity="0.85"/><g transform="rotate(6 171.3 169.4)"><ellipse cx="171.3" cy="169.4" rx="36.6" ry="27.3" fill="#4c5150"/><ellipse cx="163.2" cy="161.2" rx="22" ry="13.7" fill="#5d6361"/></g><g transform="rotate(-3.3 232.9 203.1)"><ellipse cx="232.9" cy="203.1" rx="34.1" ry="25.8" fill="#4c5150"/><ellipse cx="225.4" cy="195.4" rx="20.4" ry="12.9" fill="#5d6361"/></g><g transform="rotate(-7.1 349.2 144.2)"><ellipse cx="349.2" cy="144.2" rx="49.5" ry="18.3" fill="#4c5150"/><ellipse cx="338.3" cy="138.7" rx="29.7" ry="9.2" fill="#5d6361"/></g><g transform="rotate(-4.2 491.3 233)"><ellipse cx="491.3" cy="233" rx="35.6" ry="26.4" fill="#4c5150"/><ellipse cx="483.5" cy="225" rx="21.4" ry="13.2" fill="#5d6361"/></g><path d="M 204.2 175.4 q -6 -10, -6 -12" fill="none" stroke="hsl(120 30% 34%)" stroke-width="1.6" stroke-linecap="round"/><path d="M 204.2 175.4 q 1 -14, 5 -19" fill="none" stroke="hsl(120 30% 34%)" stroke-width="1.6" stroke-linecap="round"/><path d="M 204.2 175.4 q 8 -18, 16 -26" fill="none" stroke="hsl(120 30% 34%)" stroke-width="1.6" stroke-linecap="round"/><path d="M 204.2 175.4 q 15 -14, 27 -19" fill="none" stroke="hsl(120 30% 34%)" stroke-width="1.6" stroke-linecap="round"/><path d="M 204.2 175.4 q 22 -10, 38 -12" fill="none" stroke="hsl(120 30% 34%)" stroke-width="1.6" stroke-linecap="round"/><text x="624" y="306" text-anchor="end" font-size="10" fill="#49543f">第16週 · 2026-06-12 から</text></svg>
