<svg xmlns="http://www.w3.org/2000/svg" viewBox="0 0 640 320" font-family="sans-serif"><rect width="640" height="320" rx="12" fill="#141814"/><path d="M 20 60 Q 160 56, 320 60 T 620 60" fill="none" stroke="#222a22" stroke-width="1"/><path d="M 20 76 Q 160 72, 320 76 T 620 76" fill="none" stroke="#222a22" stroke-width="1"/><path d="M 20 92 Q 160 88, 320 92 T 620 92" fill="none" stroke="#222a22" stroke-width="1"/><path d="M 20 108 Q 160 104, 320 108 T 620 108" fill="none" stroke="#222a22" stroke-width="1"/><path d="M 20 124 Q 160 120, 320 124 T 620 124" fill="none" stroke="#222a22" stroke-width="1"/><path d="M 20 140 Q 160 136, 320 140 T 620 140" fill="none" stroke="#222a22" stroke-width="1"/><path d="M 20 156 Q 160 152, 320 156 T 620 156" fill="none" stroke="#222a22" stroke-width="1"/><path d="M 20 172 Q 160 168, 320 172 T 620 172" fill="none" stroke="#222a22" stroke-width="1"/><path d="M 20 188 Q 160 184, 320 188 T 620 188" fill="none" stroke="#222a22" stroke-width="1"/><path d="M 20 204 Q 160 200, 320 204 T 620 204" fill="none" stroke="#222a22" stroke-width="1"/><path d="M 20 220 Q 160 216, 320 220 T 620 220" fill="none" stroke="#222a22" stroke-width="1"/><path d="M 20 236 Q 160 232, 320 236 T 620 236" fill="none" stroke="#222a22" stroke-width="1"/><path d="M 20 252 Q 160 248, 320 252 T 620 252" fill="none" stroke="#222a22" stroke-width="1"/><path d="M 20 268 Q 160 264, 320 268 T 620 268" fill="none" stroke="#222a22" stroke-width="1"/><path d="M 20 284 Q 160 280, 320 284 T 620 284" fill="none" stroke="#222a22" stroke-width="1"/><ellipse cx="171.3" cy="169.4" rx="47.6" ry="35.3" fill="none" stroke="#28302687" stroke-width="1"/><ellipse cx="171.3" cy="169.4" rx="58.6" ry="43.3" fill="none" stroke="#28302687" stroke-width="1"/><ellipse cx="232.9" cy="203.1" rx="45.1" ry="33.8" fill="none" stroke="#28302687" stroke-width="1"/><ellipse cx="232.9" cy="203.1" rx="56.1" ry="41.8" fill="none" stroke="#28302687" stroke-width="1"/><ellipse cx="349.2" cy="144.2" rx="60.5" ry="26.3" fill="none" stroke="#28302687" stroke-width="1"/><ellipse cx="349.2" cy="144.2" rx="71.5" ry="34.3" fill="none" stroke="#28302687" stroke-width="1"/><ellipse cx="491.3" cy="233" rx="46.6" ry="34.4" fill="none" stroke="#28302687" stroke-width="1"/><ellipse cx="491.3" cy="233" rx="57.6" ry="42.4" fill="none" stroke="#28302687" stroke-width="1"/><circle cx="475.7" cy="201.2" r="5.8" fill="hsl(127.4 38% 34%)" opacity="0.85"/><circle cx="478" cy="199.6" r="6.7" fill="hsl(127.4 38% 34%)" opacity="0.85"/><circle cx="476.7" cy="196.5" r="6.9" fill="hsl(127.4 38% 34%)" opacity="0.85"/><circle cx="324" cy="116.8" r="6.4" fill="hsl(107.6 38% 24.3%)" opacity="0.85"/><circle cx="320.7" cy="119.3" r="4.3" fill="hsl(107.6 38% 24.3%)" opacity="0.85"/><circle cx="323.3" cy="120" r="4.6" fill="hsl(107.6 38% 24.3%)" opacity="0.85"/><circle cx="456.9" cy="213.7" r="5.2" fill="hsl(114.2 38% 35.3%)" opacity="0.85"/><circle cx="450.2" cy="208.2" r="6.7" fill="hsl(114.2 38% 35.3%)" opacity="0.85"/><circle cx="459.1" cy="210.2" r="5.3" fill="hsl(114.2 38% 35.3%)" opacity="0.85"/><circle cx="356.7" cy="114.5" r="5.7" fill="hsl(95.4 38% 26.4%)" opacity="0.85"/><circle cx="353" cy="115.4" r="4.6" fill="hsl(95.4 38% 26.4%)" opacity="0.85"/><circle cx="353" cy="113.8" r="4.2" fill="hsl(95.4 38% 26.4%)" opacity="0.85"/><circle cx="209" cy="139.6" r="5.7" fill="hsl(122 38% 35.1%)" opacity="0.85"/><circle cx="209.6" cy="139.9" r="6.5" fill="hsl(122 38% 35.1%)" opacity="0.85"/><circle cx="211.3" cy="141.7" r="5" fill="hsl(122 38% 35.1%)" opacity="0.85"/><circle cx="183.7" cy="172.3" r="4.9" fill="hsl(107.7 38% 26.8%)" opacity="0.85"/><circle cx="189.1" cy="171.3" r="4.1" fill="hsl(107.7 38% 26.8%)" opacity="0.85"/><circle cx="185.1" cy="171.9" r="6.3" fill="hsl(107.7 38% 26.8%)" opacity="0.85"/><circle cx="267.8" cy="176" r="5.9" fill="hsl(114.1 38% 30.5%)" opacity="0.85"/><circle cx="264.4" cy="176.4" r="6.4" fill="hsl(114.1 38% 30.5%)" opacity="0.85"/><circle cx="265.6" cy="175.2" r="5.7" fill="hsl(114.1 38% 30.5%)" opacity="0.85"/><circle cx="152.9" cy="140.4" r="4.5" fill="hsl(130.8 38% 24.4%)" opacity="0.85"/><circle cx="152.4" cy="138.7" r="3.6" fill="hsl(130.8 38% 24.4%)" opacity="0.85"/><circle cx="151.9" cy="138.7" r="5.8" fill="hsl(130.8 38% 24.4%)" opacity="0.85"/><circle cx="191.2" cy="135.9" r="3.9" fill="hsl(118.6 38% 28.1%)" opacity="0.85"/><circle cx="193.4" cy="138.8" r="3.8" fill="hsl(118.6 38% 28.1%)" opacity="0.85"/><circle cx="194.4" cy="137" r="5.1" fill="hsl(118.6 38% 28.1%)" opacity="0.85"/><circle cx="215.4" cy="161.9" r="5.6" fill="hsl(127 38% 27.3%)" opacity="0.85"/><circle cx="221.7" cy="164.3" r="3.6" fill="hsl(127 38% 27.3%)" opacity="0.85"/><circle cx="217.9" cy="162.4" r="3.8" fill="hsl(127 38% 27.3%)" opacity="0.85"/><circle cx="136.8" cy="140" r="3.8" fill="hsl(117.2 38% 27.7%)" opacity="0.85"/><circle cx="138.3" cy="141.1" r="3.3" fill="hsl(117.2 38% 27.7%)" opacity="0.85"/><circle cx="137.2" cy="140.1" r="3.4" fill="hsl(117.2 38% 27.7%)" opacity="0.85"/><circle cx="333.1" cy="122.2" r="3.5" fill="hsl(133.4 38% 29.6%)" opacity="0.85"/><circle cx="334.4" cy="122" r="3.3" fill="hsl(133.4 38% 29.6%)" opacity="0.85"/><circle cx="330.4" cy="122.1" r="5.1" fill="hsl(133.4 38% 29.6%)" opacity="0.85"/><circle cx="444.5" cy="207.4" r="4" fill="hsl(99.2 38% 26.6%)" opacity="0.85"/><circle cx="440.7" cy="209.5" r="4.5" fill="hsl(99.2 38% 26.6%)" opacity="0.85"/><circle cx="444.3" cy="207.9" r="4.9" fill="hsl(99.2 38% 26.6%)" opacity="0.85"/><circle cx="441.3" cy="218.5" r="4.8" fill="hsl(109.7 38% 28.7%)" opacity="0.85"/><circle cx="436.4" cy="215.9" r="4.7" fill="hsl(109.7 38% 28.7%)" opacity="0.85"/><circle cx="437.9" cy="218.8" r="5" fill="hsl(109.7 38% 28.7%)" opacity="0.85"/><circle cx="392.7" cy="127.1" r="3.6" fill="hsl(119.5 38% 31.2%)" opacity="0.85"/><circle cx="394.3" cy="128.7" r="3.8" fill="hsl(119.5 38% 31.2%)" opacity="0.85"/><circle cx="389" cy="129.9" r="4.3" fill="hsl(119.5 38% 31.2%)" opacity="0.85"/><circle cx="211.2" cy="160.2" r="3.4" fill="hsl(96.2 38% 24.4%)" opacity="0.85"/><circle cx="213.2" cy="163.1" r="3.6" fill="hsl(96.2 38% 24.4%)" opacity="0.85"/><circle cx="209.7" cy="162.5" r="3.5" fill="hsl(96.2 38% 24.4%)" opacity="0.85"/><circle cx="197.3" cy="170.1" r="2.5" fill="hsl(120.3 38% 27.3%)" opacity="0.85"/><circle cx="197.7" cy="169.5" r="2.1" fill="hsl(120.3 38% 27.3%)" opacity="0.85"/><circle cx="198.9" cy="171.8" r="2.8" fill="hsl(120.3 38% 27.3%)" opacity="0.85"/><circle cx="129.2" cy="148.5" r="2.7" fill="hsl(118 38% 34.1%)" opacity="0.85"/><circle cx="126.6" cy="146.3" r="2.4" fill="hsl(118 38% 34.1%)" opacity="0.85"/><circle cx="128.1" cy="147.8" r="2.4" fill="hsl(118 38% 34.1%)" opacity="0.85"/><g transform="rotate(6 171.3 169.4)"><ellipse cx="171.3" cy="169.4" rx="36.6" ry="27.3" fill="#4c5150"/><ellipse cx="163.2" cy="161.2" rx="22" ry="13.7" fill="#5d6361"/></g><g transform="rotate(-3.3 232.9 203.1)"><ellipse cx="232.9" cy="203.1" rx="34.1" ry="25.8" fill="#4c5150"/><ellipse cx="225.4" cy="195.4" rx="20.4" ry="12.9" fill="#5d6361"/></g><g transform="rotate(-7.1 349.2 144.2)"><ellipse cx="349.2" cy="144.2" rx="49.5" ry="18.3" fill="#4c5150"/><ellipse cx="338.3" cy="138.7" rx="29.7" ry="9.2" fill="#5d6361"/></g><g transform="rotate(-4.2 491.3 233)"><ellipse cx="491.3" cy="233" rx="35.6" ry="26.4" fill="#4c5150"/><ellipse cx="483.5" cy="225" rx="21.4" ry="13.2" fill="#5d6361"/></g><text x="624" y="306" text-anchor="end" font-size="10" fill="#49543f">第7週 · 2026-06-12 から</text></svg>
