<svg xmlns="http://www.w3.org/2000/svg" viewBox="0 0 640 320" font-family="sans-serif"><rect width="640" height="320" rx="12" fill="#141814"/><path d="M 20 60 Q 160 56, 320 60 T 620 60" fill="none" stroke="#222a22" stroke-width="1"/><path d="M 20 76 Q 160 72, 320 76 T 620 76" fill="none" stroke="#222a22" stroke-width="1"/><path d="M 20 92 Q 160 88, 320 92 T 620 92" fill="none" stroke="#222a22" stroke-width="1"/><path d="M 20 108 Q 160 104, 320 108 T 620 108" fill="none" stroke="#222a22" stroke-width="1"/><path d="M 20 124 Q 160 120, 320 124 T 620 124" fill="none" stroke="#222a22" stroke-width="1"/><path d="M 20 140 Q 160 136, 320 140 T 620 140" fill="none" stroke="#222a22" stroke-width="1"/><path d="M 20 156 Q 160 152, 320 156 T 620 156" fill="none" stroke="#222a22" stroke-width="1"/><path d="M 20 172 Q 160 168, 320 172 T 620 172" fill="none" stroke="#222a22" stroke-width="1"/><path d="M 20 188 Q 160 184, 320 188 T 620 188" fill="none" stroke="#222a22" stroke-width="1"/><path d="M 20 204 Q 160 200, 320 204 T 620 204" fill="none" stroke="#222a22" stroke-width="1"/><path d="M 20 220 Q 160 216, 320 220 T 620 220" fill="none" stroke="#222a22" stroke-width="1"/><path d="M 20 236 Q 160 232, 320 236 T 620 236" fill="none" stroke="#222a22" stroke-width="1"/><path d="M 20 252 Q 160 248, 320 252 T 620 252" fill="none" stroke="#222a22" stroke-width="1"/><path d="M 20 268 Q 160 264, 320 268 T 620 268" fill="none" stroke="#222a22" stroke-width="1"/><path d="M 20 284 Q 160 280, 320 284 T 620 284" fill="none" stroke="#222a22" stroke-width="1"/><ellipse cx="171.3" cy="169.4" rx="47.6" ry="35.3" fill="none" stroke="#28302687" stroke-width="1"/><ellipse cx="171.3" cy="169.4" rx="58.6" ry="43.3" fill="none" stroke="#28302687" stroke-width="1"/><ellipse cx="232.9" cy="203.1" rx="45.1" ry="33.8" fill="none" stroke="#28302687" stroke-width="1"/><ellipse cx="232.9" cy="203.1" rx="56.1" ry="41.8" fill="none" stroke="#28302687" stroke-width="1"/><ellipse cx="349.2" cy="144.2" rx="60.5" ry="26.3" fill="none" stroke="#28302687" stroke-width="1"/><ellipse cx="349.2" cy="144.2" rx="71.5" ry="34.3" fill="none" stroke="#28302687" stroke-width="1"/><ellipse cx="491.3" cy="233" rx="46.6" ry="34.4" fill="none" stroke="#28302687" stroke-width="1"/><ellipse cx="491.3" cy="233" rx="57.6" ry="42.4" fill="none" stroke="#28302687" stroke-width="1"/><circle cx="475.2" cy="201.6" r="6.5" fill="hsl(127.4 38% 34%)" opacity="0.85"/><circle cx="477.8" cy="199.8" r="7.6" fill="hsl(127.4 38% 34%)" opacity="0.85"/><circle cx="476.3" cy="196.2" r="7.8" fill="hsl(127.4 38% 34%)" opacity="0.85"/><circle cx="324.2" cy="116.8" r="7.2" fill="hsl(107.6 38% 24.3%)" opacity="0.85"/><circle cx="320.5" cy="119.7" r="4.9" fill="hsl(107.6 38% 24.3%)" opacity="0.85"/><circle cx="323.5" cy="120.4" r="5.2" fill="hsl(107.6 38% 24.3%)" opacity="0.85"/><circle cx="457.2" cy="214.1" r="5.9" fill="hsl(114.2 38% 35.3%)" opacity="0.85"/><circle cx="449.6" cy="207.9" r="7.6" fill="hsl(114.2 38% 35.3%)" opacity="0.85"/><circle cx="459.7" cy="210.1" r="6" fill="hsl(114.2 38% 35.3%)" opacity="0.85"/><circle cx="356.7" cy="114.7" r="6.6" fill="hsl(95.4 38% 26.4%)" opacity="0.85"/><circle cx="352.4" cy="115.7" r="5.3" fill="hsl(95.4 38% 26.4%)" opacity="0.85"/><circle cx="352.4" cy="113.8" r="4.8" fill="hsl(95.4 38% 26.4%)" opacity="0.85"/><circle cx="209.1" cy="139.7" r="6.6" fill="hsl(122 38% 35.1%)" opacity="0.85"/><circle cx="209.9" cy="140.1" r="7.5" fill="hsl(122 38% 35.1%)" opacity="0.85"/><circle cx="211.9" cy="142.1" r="5.8" fill="hsl(122 38% 35.1%)" opacity="0.85"/><circle cx="183" cy="172.2" r="5.8" fill="hsl(107.7 38% 26.8%)" opacity="0.85"/><circle cx="189.3" cy="171.1" r="4.8" fill="hsl(107.7 38% 26.8%)" opacity="0.85"/><circle cx="184.7" cy="171.7" r="7.4" fill="hsl(107.7 38% 26.8%)" opacity="0.85"/><circle cx="267.8" cy="176.2" r="6.9" fill="hsl(114.1 38% 30.5%)" opacity="0.85"/><circle cx="264" cy="176.7" r="7.5" fill="hsl(114.1 38% 30.5%)" opacity="0.85"/><circle cx="265.3" cy="175.3" r="6.7" fill="hsl(114.1 38% 30.5%)" opacity="0.85"/><circle cx="152.9" cy="140.6" r="5.4" fill="hsl(130.8 38% 24.4%)" opacity="0.85"/><circle cx="152.3" cy="138.6" r="4.3" fill="hsl(130.8 38% 24.4%)" opacity="0.85"/><circle cx="151.7" cy="138.6" r="6.9" fill="hsl(130.8 38% 24.4%)" opacity="0.85"/><circle cx="191" cy="135.7" r="4.7" fill="hsl(118.6 38% 28.1%)" opacity="0.85"/><circle cx="193.6" cy="139.3" r="4.6" fill="hsl(118.6 38% 28.1%)" opacity="0.85"/><circle cx="194.8" cy="137.1" r="6.1" fill="hsl(118.6 38% 28.1%)" opacity="0.85"/><circle cx="214.7" cy="161.8" r="6.9" fill="hsl(127 38% 27.3%)" opacity="0.85"/><circle cx="222.5" cy="164.7" r="4.5" fill="hsl(127 38% 27.3%)" opacity="0.85"/><circle cx="217.8" cy="162.4" r="4.7" fill="hsl(127 38% 27.3%)" opacity="0.85"/><circle cx="136.8" cy="140" r="4.7" fill="hsl(117.2 38% 27.7%)" opacity="0.85"/><circle cx="138.6" cy="141.5" r="4.1" fill="hsl(117.2 38% 27.7%)" opacity="0.85"/><circle cx="137.3" cy="140.1" r="4.2" fill="hsl(117.2 38% 27.7%)" opacity="0.85"/><circle cx="333.2" cy="122.7" r="4.3" fill="hsl(133.4 38% 29.6%)" opacity="0.85"/><circle cx="334.8" cy="122.5" r="4.1" fill="hsl(133.4 38% 29.6%)" opacity="0.85"/><circle cx="329.9" cy="122.6" r="6.3" fill="hsl(133.4 38% 29.6%)" opacity="0.85"/><circle cx="445.4" cy="207.2" r="5.3" fill="hsl(99.2 38% 26.6%)" opacity="0.85"/><circle cx="440.5" cy="209.9" r="5.9" fill="hsl(99.2 38% 26.6%)" opacity="0.85"/><circle cx="445.2" cy="207.8" r="6.4" fill="hsl(99.2 38% 26.6%)" opacity="0.85"/><circle cx="442" cy="219" r="6.3" fill="hsl(109.7 38% 28.7%)" opacity="0.85"/><circle cx="435.6" cy="215.6" r="6.1" fill="hsl(109.7 38% 28.7%)" opacity="0.85"/><circle cx="437.5" cy="219.3" r="6.6" fill="hsl(109.7 38% 28.7%)" opacity="0.85"/><circle cx="393.1" cy="126.5" r="5.1" fill="hsl(119.5 38% 31.2%)" opacity="0.85"/><circle cx="395.5" cy="128.8" r="5.3" fill="hsl(119.5 38% 31.2%)" opacity="0.85"/><circle cx="388" cy="130.5" r="6" fill="hsl(119.5 38% 31.2%)" opacity="0.85"/><circle cx="211.2" cy="159.6" r="4.8" fill="hsl(96.2 38% 24.4%)" opacity="0.85"/><circle cx="213.9" cy="163.6" r="5" fill="hsl(96.2 38% 24.4%)" opacity="0.85"/><circle cx="209.1" cy="162.8" r="4.9" fill="hsl(96.2 38% 24.4%)" opacity="0.85"/><circle cx="197.2" cy="169.7" r="4.2" fill="hsl(120.3 38% 27.3%)" opacity="0.85"/><circle cx="197.8" cy="168.7" r="3.6" fill="hsl(120.3 38% 27.3%)" opacity="0.85"/><circle cx="199.9" cy="172.5" r="4.7" fill="hsl(120.3 38% 27.3%)" opacity="0.85"/><circle cx="130.5" cy="149.4" r="4.6" fill="hsl(118 38% 34.1%)" opacity="0.85"/><circle cx="126.2" cy="145.6" r="4.1" fill="hsl(118 38% 34.1%)" opacity="0.85"/><circle cx="128.7" cy="148.2" r="4.1" fill="hsl(118 38% 34.1%)" opacity="0.85"/><circle cx="154.7" cy="125.8" r="3.7" fill="hsl(132.4 38% 24.7%)" opacity="0.85"/><circle cx="160.1" cy="127.4" r="4.7" fill="hsl(132.4 38% 24.7%)" opacity="0.85"/><circle cx="159.8" cy="128.2" r="5" fill="hsl(132.4 38% 24.7%)" opacity="0.85"/><circle cx="352.6" cy="115.1" r="3.1" fill="hsl(110.4 38% 28.9%)" opacity="0.85"/><circle cx="348.3" cy="115.5" r="4.6" fill="hsl(110.4 38% 28.9%)" opacity="0.85"/><circle cx="352.9" cy="116.6" r="3.9" fill="hsl(110.4 38% 28.9%)" opacity="0.85"/><circle cx="450.8" cy="200.1" r="3.1" fill="hsl(98.4 38% 28%)" opacity="0.85"/><circle cx="449.3" cy="200.5" r="3" fill="hsl(98.4 38% 28%)" opacity="0.85"/><circle cx="449.7" cy="200" r="3.8" fill="hsl(98.4 38% 28%)" opacity="0.85"/><circle cx="203.9" cy="135.3" r="3.3" fill="hsl(120.7 38% 26.6%)" opacity="0.85"/><circle cx="205.7" cy="135" r="2.9" fill="hsl(120.7 38% 26.6%)" opacity="0.85"/><circle cx="202.6" cy="132.5" r="3.1" fill="hsl(120.7 38% 26.6%)" opacity="0.85"/><circle cx="284.6" cy="188.6" r="3.9" fill="hsl(113.9 38% 26.4%)" opacity="0.85"/><circle cx="284.7" cy="187.5" r="3.1" fill="hsl(113.9 38% 26.4%)" opacity="0.85"/><circle cx="286.4" cy="189.2" r="3.2" fill="hsl(113.9 38% 26.4%)" opacity="0.85"/><circle cx="183.3" cy="190.7" r="2.7" fill="hsl(132.4 38% 33.9%)" opacity="0.85"/><circle cx="183.2" cy="189.2" r="3.2" fill="hsl(132.4 38% 33.9%)" opacity="0.85"/><circle cx="183.5" cy="189.7" r="2.9" fill="hsl(132.4 38% 33.9%)" opacity="0.85"/><circle cx="97.2" cy="149.1" r="2.7" fill="hsl(105.9 38% 33%)" opacity="0.85"/><circle cx="98.4" cy="150.7" r="2.5" fill="hsl(105.9 38% 33%)" opacity="0.85"/><circle cx="99.5" cy="149.2" r="2.7" fill="hsl(105.9 38% 33%)" opacity="0.85"/><g transform="rotate(6 171.3 169.4)"><ellipse cx="171.3" cy="169.4" rx="36.6" ry="27.3" fill="#4c5150"/><ellipse cx="163.2" cy="161.2" rx="22" ry="13.7" fill="#5d6361"/></g><g transform="rotate(-3.3 232.9 203.1)"><ellipse cx="232.9" cy="203.1" rx="34.1" ry="25.8" fill="#4c5150"/><ellipse cx="225.4" cy="195.4" rx="20.4" ry="12.9" fill="#5d6361"/></g><g transform="rotate(-7.1 349.2 144.2)"><ellipse cx="349.2" cy="144.2" rx="49.5" ry="18.3" fill="#4c5150"/><ellipse cx="338.3" cy="138.7" rx="29.7" ry="9.2" fill="#5d6361"/></g><g transform="rotate(-4.2 491.3 233)"><ellipse cx="491.3" cy="233" rx="35.6" ry="26.4" fill="#4c5150"/><ellipse cx="483.5" cy="225" rx="21.4" ry="13.2" fill="#5d6361"/></g><path d="M 204.2 175.4 q -6 -10, -6 -12" fill="none" stroke="hsl(120 30% 34%)" stroke-width="1.6" stroke-linecap="round"/><path d="M 204.2 175.4 q 1 -14, 5 -19" fill="none" stroke="hsl(120 30% 34%)" stroke-width="1.6" stroke-linecap="round"/><path d="M 204.2 175.4 q 8 -18, 16 -26" fill="none" stroke="hsl(120 30% 34%)" stroke-width="1.6" stroke-linecap="round"/><path d="M 204.2 175.4 q 15 -14, 27 -19" fill="none" stroke="hsl(120 30% 34%)" stroke-width="1.6" stroke-linecap="round"/><path d="M 204.2 175.4 q 22 -10, 38 -12" fill="none" stroke="hsl(120 30% 34%)" stroke-width="1.6" stroke-linecap="round"/><text x="624" y="306" text-anchor="end" font-size="10" fill="#49543f">第10週 · 2026-06-12 から</text></svg>
