<svg xmlns="http://www.w3.org/2000/svg" viewBox="0 0 640 320" font-family="sans-serif"><rect width="640" height="320" rx="12" fill="#141814"/><path d="M 20 60 Q 160 56, 320 60 T 620 60" fill="none" stroke="#222a22" stroke-width="1"/><path d="M 20 76 Q 160 72, 320 76 T 620 76" fill="none" stroke="#222a22" stroke-width="1"/><path d="M 20 92 Q 160 88, 320 92 T 620 92" fill="none" stroke="#222a22" stroke-width="1"/><path d="M 20 108 Q 160 104, 320 108 T 620 108" fill="none" stroke="#222a22" stroke-width="1"/><path d="M 20 124 Q 160 120, 320 124 T 620 124" fill="none" stroke="#222a22" stroke-width="1"/><path d="M 20 140 Q 160 136, 320 140 T 620 140" fill="none" stroke="#222a22" stroke-width="1"/><path d="M 20 156 Q 160 152, 320 156 T 620 156" fill="none" stroke="#222a22" stroke-width="1"/><path d="M 20 172 Q 160 168, 320 172 T 620 172" fill="none" stroke="#222a22" stroke-width="1"/><path d="M 20 188 Q 160 184, 320 188 T 620 188" fill="none" stroke="#222a22" stroke-width="1"/><path d="M 20 204 Q 160 200, 320 204 T 620 204" fill="none" stroke="#222a22" stroke-width="1"/><path d="M 20 220 Q 160 216, 320 220 T 620 220" fill="none" stroke="#222a22" stroke-width="1"/><path d="M 20 236 Q 160 232, 320 236 T 620 236" fill="none" stroke="#222a22" stroke-width="1"/><path d="M 20 252 Q 160 248, 320 252 T 620 252" fill="none" stroke="#222a22" stroke-width="1"/><path d="M 20 268 Q 160 264, 320 268 T 620 268" fill="none" stroke="#222a22" stroke-width="1"/><path d="M 20 284 Q 160 280, 320 284 T 620 284" fill="none" stroke="#222a22" stroke-width="1"/><ellipse cx="171.3" cy="169.4" rx="47.6" ry="35.3" fill="none" stroke="#28302687" stroke-width="1"/><ellipse cx="171.3" cy="169.4" rx="58.6" ry="43.3" fill="none" stroke="#28302687" stroke-width="1"/><ellipse cx="232.9" cy="203.1" rx="45.1" ry="33.8" fill="none" stroke="#28302687" stroke-width="1"/><ellipse cx="232.9" cy="203.1" rx="56.1" ry="41.8" fill="none" stroke="#28302687" stroke-width="1"/><ellipse cx="349.2" cy="144.2" rx="60.5" ry="26.3" fill="none" stroke="#28302687" stroke-width="1"/><ellipse cx="349.2" cy="144.2" rx="71.5" ry="34.3" fill="none" stroke="#28302687" stroke-width="1"/><ellipse cx="491.3" cy="233" rx="46.6" ry="34.4" fill="none" stroke="#28302687" stroke-width="1"/><ellipse cx="491.3" cy="233" rx="57.6" ry="42.4" fill="none" stroke="#28302687" stroke-width="1"/><circle cx="476.8" cy="200.4" r="4" fill="hsl(127.4 38% 34%)" opacity="0.85"/><circle cx="478.5" cy="199.2" r="4.6" fill="hsl(127.4 38% 34%)" opacity="0.85"/><circle cx="477.5" cy="197.1" r="4.7" fill="hsl(127.4 38% 34%)" opacity="0.85"/><circle cx="323.4" cy="116.8" r="4.4" fill="hsl(107.6 38% 24.3%)" opacity="0.85"/><circle cx="321.1" cy="118.6" r="2.9" fill="hsl(107.6 38% 24.3%)" opacity="0.85"/><circle cx="322.9" cy="119" r="3.1" fill="hsl(107.6 38% 24.3%)" opacity="0.85"/><circle cx="456.2" cy="212.8" r="3.6" fill="hsl(114.2 38% 35.3%)" opacity="0.85"/><circle cx="451.6" cy="209.1" r="4.6" fill="hsl(114.2 38% 35.3%)" opacity="0.85"/><circle cx="457.7" cy="210.4" r="3.6" fill="hsl(114.2 38% 35.3%)" opacity="0.85"/><circle cx="356.8" cy="114.2" r="3.6" fill="hsl(95.4 38% 26.4%)" opacity="0.85"/><circle cx="354.4" cy="114.7" r="2.8" fill="hsl(95.4 38% 26.4%)" opacity="0.85"/><circle cx="354.4" cy="113.7" r="2.6" fill="hsl(95.4 38% 26.4%)" opacity="0.85"/><circle cx="208.5" cy="139.3" r="3.6" fill="hsl(122 38% 35.1%)" opacity="0.85"/><circle cx="208.9" cy="139.5" r="4" fill="hsl(122 38% 35.1%)" opacity="0.85"/><circle cx="210" cy="140.6" r="3.1" fill="hsl(122 38% 35.1%)" opacity="0.85"/><circle cx="185.6" cy="172.5" r="2.5" fill="hsl(107.7 38% 26.8%)" opacity="0.85"/><circle cx="188.3" cy="172" r="2" fill="hsl(107.7 38% 26.8%)" opacity="0.85"/><circle cx="186.3" cy="172.3" r="3.2" fill="hsl(107.7 38% 26.8%)" opacity="0.85"/><circle cx="267.5" cy="175.5" r="3" fill="hsl(114.1 38% 30.5%)" opacity="0.85"/><circle cx="265.8" cy="175.7" r="3.2" fill="hsl(114.1 38% 30.5%)" opacity="0.85"/><circle cx="266.4" cy="175.1" r="2.9" fill="hsl(114.1 38% 30.5%)" opacity="0.85"/><g transform="rotate(6 171.3 169.4)"><ellipse cx="171.3" cy="169.4" rx="36.6" ry="27.3" fill="#4c5150"/><ellipse cx="163.2" cy="161.2" rx="22" ry="13.7" fill="#5d6361"/></g><g transform="rotate(-3.3 232.9 203.1)"><ellipse cx="232.9" cy="203.1" rx="34.1" ry="25.8" fill="#4c5150"/><ellipse cx="225.4" cy="195.4" rx="20.4" ry="12.9" fill="#5d6361"/></g><g transform="rotate(-7.1 349.2 144.2)"><ellipse cx="349.2" cy="144.2" rx="49.5" ry="18.3" fill="#4c5150"/><ellipse cx="338.3" cy="138.7" rx="29.7" ry="9.2" fill="#5d6361"/></g><g transform="rotate(-4.2 491.3 233)"><ellipse cx="491.3" cy="233" rx="35.6" ry="26.4" fill="#4c5150"/><ellipse cx="483.5" cy="225" rx="21.4" ry="13.2" fill="#5d6361"/></g><text x="624" y="306" text-anchor="end" font-size="10" fill="#49543f">第2週 · 2026-06-12 から</text></svg>
