<?xml version="1.0" encoding="UTF-8"?>
<svg xmlns="http://www.w3.org/2000/svg" width="960" height="600" viewBox="0 0 960 600" font-family="ui-sans-serif,system-ui,sans-serif">
  <defs><radialGradient id="bg" cx="50%" cy="42%" r="75%">
    <stop offset="0%" stop-color="#0a1024"/><stop offset="100%" stop-color="#02030a"/>
  </radialGradient></defs>
  <rect width="960" height="600" fill="url(#bg)"/>
  <rect x="0" y="261" width="960" height="14" fill="hsl(200 90% 60%)" opacity="0.10"/><rect x="0" y="277" width="960" height="14" fill="hsl(240 90% 60%)" opacity="0.10"/><rect x="0" y="293" width="960" height="14" fill="hsl(280 90% 60%)" opacity="0.10"/><rect x="0" y="309" width="960" height="14" fill="hsl(320 90% 60%)" opacity="0.10"/><rect x="0" y="325" width="960" height="14" fill="hsl(0 90% 60%)" opacity="0.10"/>
  <g><circle cx="316.0" cy="593.7" r="0.94" fill="rgb(211,223,255)" fill-opacity="0.38"/><circle cx="688.3" cy="285.4" r="1.42" fill="rgb(221,232,255)" fill-opacity="0.54"/><circle cx="504.8" cy="451.1" r="1.45" fill="rgb(221,232,255)" fill-opacity="0.55"/><circle cx="581.3" cy="389.2" r="1.28" fill="rgb(218,229,255)" fill-opacity="0.49"/><circle cx="509.6" cy="48.7" r="0.99" fill="rgb(212,224,255)" fill-opacity="0.40"/><circle cx="21.2" cy="105.5" r="1.77" fill="rgb(228,237,255)" fill-opacity="0.66"/><circle cx="186.4" cy="195.9" r="1.44" fill="rgb(221,232,255)" fill-opacity="0.55"/><circle cx="41.7" cy="401.1" r="1.93" fill="rgb(231,240,255)" fill-opacity="0.71"/><circle cx="854.0" cy="113.0" r="1.23" fill="rgb(217,228,255)" fill-opacity="0.48"/><circle cx="613.1" cy="400.7" r="1.16" fill="rgb(215,227,255)" fill-opacity="0.45"/><circle cx="502.9" cy="590.3" r="1.11" fill="rgb(214,226,255)" fill-opacity="0.44"/><circle cx="473.9" cy="487.1" r="0.48" fill="rgb(201,216,255)" fill-opacity="0.23"/><circle cx="235.1" cy="169.3" r="1.29" fill="rgb(218,229,255)" fill-opacity="0.50"/><circle cx="710.1" cy="127.6" r="1.55" fill="rgb(224,234,255)" fill-opacity="0.58"/><circle cx="384.9" cy="247.2" r="0.67" fill="rgb(205,219,255)" fill-opacity="0.29"/><circle cx="601.6" cy="465.8" r="1.71" fill="rgb(227,236,255)" fill-opacity="0.64"/><circle cx="846.1" cy="410.1" r="1.35" fill="rgb(219,230,255)" fill-opacity="0.52"/><circle cx="460.1" cy="591.5" r="1.64" fill="rgb(225,235,255)" fill-opacity="0.61"/><circle cx="572.5" cy="313.1" r="0.72" fill="rgb(206,220,255)" fill-opacity="0.31"/><circle cx="887.4" cy="398.8" r="1.44" fill="rgb(221,232,255)" fill-opacity="0.55"/><circle cx="300.3" cy="71.6" r="0.98" fill="rgb(212,224,255)" fill-opacity="0.39"/><circle cx="518.0" cy="284.3" r="0.88" fill="rgb(209,222,255)" fill-opacity="0.36"/><circle cx="444.4" cy="245.9" r="1.38" fill="rgb(220,231,255)" fill-opacity="0.53"/><circle cx="223.3" cy="249.1" r="0.65" fill="rgb(205,219,255)" fill-opacity="0.28"/><circle cx="679.4" cy="480.6" r="0.99" fill="rgb(212,224,255)" fill-opacity="0.40"/><circle cx="289.5" cy="551.8" r="0.58" fill="rgb(203,217,255)" fill-opacity="0.26"/><circle cx="755.0" cy="504.8" r="0.84" fill="rgb(209,222,255)" fill-opacity="0.35"/><circle cx="684.9" cy="71.3" r="0.71" fill="rgb(206,220,255)" fill-opacity="0.30"/><circle cx="643.4" cy="23.8" r="1.06" fill="rgb(213,225,255)" fill-opacity="0.42"/><circle cx="756.5" cy="113.7" r="0.81" fill="rgb(208,221,255)" fill-opacity="0.34"/><circle cx="692.3" cy="501.1" r="1.25" fill="rgb(217,229,255)" fill-opacity="0.48"/><circle cx="239.1" cy="567.2" r="0.91" fill="rgb(210,223,255)" fill-opacity="0.37"/><circle cx="606.0" cy="117.9" r="1.23" fill="rgb(217,228,255)" fill-opacity="0.48"/><circle cx="410.4" cy="32.6" r="1.14" fill="rgb(215,227,255)" fill-opacity="0.45"/><circle cx="520.3" cy="333.2" r="1.06" fill="rgb(213,225,255)" fill-opacity="0.42"/><circle cx="609.5" cy="426.4" r="0.56" fill="rgb(203,217,255)" fill-opacity="0.25"/><circle cx="446.9" cy="483.1" r="1.86" fill="rgb(230,239,255)" fill-opacity="0.69"/><circle cx="257.2" cy="93.9" r="0.41" fill="rgb(200,215,255)" fill-opacity="0.20"/><circle cx="292.3" cy="478.3" r="0.46" fill="rgb(201,215,255)" fill-opacity="0.22"/><circle cx="207.9" cy="356.7" r="0.96" fill="rgb(211,224,255)" fill-opacity="0.39"/><circle cx="759.5" cy="96.8" r="0.70" fill="rgb(206,219,255)" fill-opacity="0.30"/><circle cx="355.8" cy="55.6" r="1.42" fill="rgb(221,232,255)" fill-opacity="0.54"/><circle cx="323.4" cy="155.9" r="0.92" fill="rgb(210,223,255)" fill-opacity="0.37"/><circle cx="832.0" cy="251.6" r="2.19" fill="rgb(237,244,255)" fill-opacity="0.80"/><circle cx="269.6" cy="144.7" r="1.02" fill="rgb(212,225,255)" fill-opacity="0.41"/><circle cx="503.7" cy="97.4" r="1.30" fill="rgb(218,230,255)" fill-opacity="0.50"/><circle cx="434.0" cy="106.4" r="1.14" fill="rgb(215,227,255)" fill-opacity="0.45"/><circle cx="556.0" cy="281.9" r="0.46" fill="rgb(201,215,255)" fill-opacity="0.22"/><circle cx="464.4" cy="459.9" r="1.40" fill="rgb(220,231,255)" fill-opacity="0.53"/><circle cx="609.2" cy="517.0" r="0.80" fill="rgb(208,221,255)" fill-opacity="0.33"/><circle cx="751.7" cy="266.4" r="0.87" fill="rgb(209,222,255)" fill-opacity="0.36"/><circle cx="220.9" cy="24.2" r="0.81" fill="rgb(208,221,255)" fill-opacity="0.34"/><circle cx="829.1" cy="474.2" r="2.00" fill="rgb(233,241,255)" fill-opacity="0.73"/><circle cx="657.4" cy="380.2" r="0.58" fill="rgb(203,218,255)" fill-opacity="0.26"/><circle cx="398.5" cy="164.5" r="0.65" fill="rgb(205,219,255)" fill-opacity="0.28"/><circle cx="715.2" cy="67.5" r="1.12" fill="rgb(214,226,255)" fill-opacity="0.44"/><circle cx="818.8" cy="391.3" r="1.28" fill="rgb(218,229,255)" fill-opacity="0.49"/><circle cx="359.3" cy="465.4" r="0.52" fill="rgb(202,216,255)" fill-opacity="0.24"/><circle cx="506.8" cy="172.8" r="0.63" fill="rgb(204,218,255)" fill-opacity="0.28"/><circle cx="466.3" cy="218.5" r="0.51" fill="rgb(202,216,255)" fill-opacity="0.24"/><circle cx="272.8" cy="344.2" r="0.84" fill="rgb(209,222,255)" fill-opacity="0.35"/><circle cx="583.8" cy="217.6" r="1.21" fill="rgb(216,228,255)" fill-opacity="0.47"/><circle cx="277.7" cy="282.1" r="1.67" fill="rgb(226,236,255)" fill-opacity="0.62"/><circle cx="448.9" cy="130.1" r="0.93" fill="rgb(211,223,255)" fill-opacity="0.38"/><circle cx="136.5" cy="218.8" r="2.18" fill="rgb(237,244,255)" fill-opacity="0.79"/><circle cx="752.0" cy="597.7" r="1.10" fill="rgb(214,226,255)" fill-opacity="0.43"/><circle cx="631.5" cy="498.7" r="0.46" fill="rgb(201,215,255)" fill-opacity="0.22"/><circle cx="315.8" cy="467.2" r="1.53" fill="rgb(223,233,255)" fill-opacity="0.58"/><circle cx="320.6" cy="136.2" r="1.15" fill="rgb(215,227,255)" fill-opacity="0.45"/><circle cx="471.7" cy="369.5" r="1.25" fill="rgb(217,229,255)" fill-opacity="0.48"/><circle cx="612.0" cy="183.1" r="1.10" fill="rgb(214,226,255)" fill-opacity="0.43"/><circle cx="184.4" cy="449.7" r="0.94" fill="rgb(211,224,255)" fill-opacity="0.38"/><circle cx="591.9" cy="555.1" r="0.69" fill="rgb(205,219,255)" fill-opacity="0.30"/><circle cx="303.3" cy="416.9" r="1.71" fill="rgb(227,236,255)" fill-opacity="0.64"/><circle cx="813.2" cy="233.3" r="1.31" fill="rgb(218,230,255)" fill-opacity="0.50"/><circle cx="925.4" cy="72.5" r="1.73" fill="rgb(227,237,255)" fill-opacity="0.64"/><circle cx="819.4" cy="523.7" r="2.04" fill="rgb(234,242,255)" fill-opacity="0.75"/><circle cx="366.5" cy="565.1" r="0.89" fill="rgb(210,223,255)" fill-opacity="0.36"/><circle cx="58.0" cy="269.9" r="1.96" fill="rgb(232,240,255)" fill-opacity="0.72"/><circle cx="625.8" cy="286.9" r="2.32" fill="rgb(239,246,255)" fill-opacity="0.84"/><circle cx="397.1" cy="20.3" r="1.34" fill="rgb(219,230,255)" fill-opacity="0.51"/><circle cx="206.3" cy="155.4" r="1.27" fill="rgb(218,229,255)" fill-opacity="0.49"/><circle cx="496.0" cy="102.2" r="2.04" fill="rgb(234,242,255)" fill-opacity="0.75"/><circle cx="314.5" cy="89.3" r="0.74" fill="rgb(207,220,255)" fill-opacity="0.31"/><circle cx="426.0" cy="557.6" r="1.06" fill="rgb(213,226,255)" fill-opacity="0.42"/><circle cx="439.4" cy="221.4" r="0.41" fill="rgb(200,215,255)" fill-opacity="0.20"/><circle cx="731.4" cy="136.5" r="0.43" fill="rgb(200,215,255)" fill-opacity="0.21"/><circle cx="755.8" cy="337.1" r="0.76" fill="rgb(207,220,255)" fill-opacity="0.32"/><circle cx="372.8" cy="8.8" r="1.02" fill="rgb(212,225,255)" fill-opacity="0.41"/><circle cx="690.4" cy="138.9" r="0.82" fill="rgb(208,221,255)" fill-opacity="0.34"/><circle cx="546.7" cy="216.0" r="0.73" fill="rgb(206,220,255)" fill-opacity="0.31"/><circle cx="439.3" cy="292.0" r="0.70" fill="rgb(206,219,255)" fill-opacity="0.30"/><circle cx="644.1" cy="68.4" r="0.63" fill="rgb(204,218,255)" fill-opacity="0.28"/><circle cx="392.7" cy="324.0" r="0.69" fill="rgb(206,219,255)" fill-opacity="0.30"/><circle cx="716.1" cy="87.7" r="0.41" fill="rgb(200,215,255)" fill-opacity="0.20"/><circle cx="216.9" cy="555.8" r="0.51" fill="rgb(202,216,255)" fill-opacity="0.24"/><circle cx="384.9" cy="561.7" r="1.03" fill="rgb(213,225,255)" fill-opacity="0.41"/><circle cx="450.6" cy="413.6" r="1.39" fill="rgb(220,231,255)" fill-opacity="0.53"/><circle cx="424.9" cy="379.1" r="0.66" fill="rgb(205,219,255)" fill-opacity="0.29"/><circle cx="791.3" cy="358.4" r="1.52" fill="rgb(223,233,255)" fill-opacity="0.57"/><circle cx="616.3" cy="557.2" r="1.17" fill="rgb(216,227,255)" fill-opacity="0.46"/><circle cx="190.8" cy="585.5" r="1.03" fill="rgb(213,225,255)" fill-opacity="0.41"/><circle cx="425.7" cy="40.8" r="0.68" fill="rgb(205,219,255)" fill-opacity="0.29"/><circle cx="425.4" cy="483.0" r="0.51" fill="rgb(202,216,255)" fill-opacity="0.24"/><circle cx="250.1" cy="326.7" r="0.82" fill="rgb(208,221,255)" fill-opacity="0.34"/><circle cx="171.6" cy="510.5" r="0.92" fill="rgb(210,223,255)" fill-opacity="0.37"/><circle cx="850.3" cy="116.3" r="1.83" fill="rgb(229,238,255)" fill-opacity="0.68"/><circle cx="199.4" cy="30.2" r="0.74" fill="rgb(207,220,255)" fill-opacity="0.31"/><circle cx="812.0" cy="461.5" r="0.99" fill="rgb(212,224,255)" fill-opacity="0.40"/><circle cx="356.0" cy="548.7" r="0.79" fill="rgb(208,221,255)" fill-opacity="0.33"/><circle cx="380.4" cy="497.8" r="1.03" fill="rgb(213,225,255)" fill-opacity="0.41"/><circle cx="875.4" cy="268.9" r="1.91" fill="rgb(231,240,255)" fill-opacity="0.70"/><circle cx="587.2" cy="549.4" r="1.29" fill="rgb(218,229,255)" fill-opacity="0.50"/><circle cx="782.4" cy="436.4" r="1.09" fill="rgb(214,226,255)" fill-opacity="0.43"/><circle cx="271.6" cy="560.8" r="1.02" fill="rgb(212,225,255)" fill-opacity="0.41"/><circle cx="702.5" cy="176.7" r="0.49" fill="rgb(201,216,255)" fill-opacity="0.23"/><circle cx="435.2" cy="517.5" r="1.62" fill="rgb(225,235,255)" fill-opacity="0.61"/><circle cx="367.6" cy="486.4" r="0.62" fill="rgb(204,218,255)" fill-opacity="0.27"/><circle cx="359.2" cy="489.2" r="0.73" fill="rgb(206,220,255)" fill-opacity="0.31"/><circle cx="770.4" cy="251.3" r="1.45" fill="rgb(221,232,255)" fill-opacity="0.55"/><circle cx="331.5" cy="173.1" r="0.81" fill="rgb(208,221,255)" fill-opacity="0.34"/><circle cx="195.0" cy="87.9" r="1.68" fill="rgb(226,236,255)" fill-opacity="0.63"/><circle cx="446.4" cy="224.9" r="0.47" fill="rgb(201,216,255)" fill-opacity="0.22"/><circle cx="268.7" cy="325.3" r="1.11" fill="rgb(214,226,255)" fill-opacity="0.44"/><circle cx="638.5" cy="40.8" r="1.77" fill="rgb(228,237,255)" fill-opacity="0.66"/><circle cx="442.4" cy="558.6" r="0.92" fill="rgb(210,223,255)" fill-opacity="0.37"/><circle cx="521.0" cy="533.1" r="2.24" fill="rgb(238,245,255)" fill-opacity="0.81"/><circle cx="419.5" cy="355.3" r="0.88" fill="rgb(209,222,255)" fill-opacity="0.36"/><circle cx="230.8" cy="351.9" r="0.76" fill="rgb(207,220,255)" fill-opacity="0.32"/><circle cx="353.0" cy="250.6" r="0.52" fill="rgb(202,216,255)" fill-opacity="0.24"/><circle cx="517.5" cy="244.1" r="1.84" fill="rgb(230,239,255)" fill-opacity="0.68"/><circle cx="121.8" cy="39.8" r="1.32" fill="rgb(219,230,255)" fill-opacity="0.51"/><circle cx="642.7" cy="233.1" r="1.42" fill="rgb(221,232,255)" fill-opacity="0.54"/><circle cx="441.7" cy="500.6" r="0.69" fill="rgb(206,219,255)" fill-opacity="0.30"/><circle cx="99.1" cy="543.7" r="1.22" fill="rgb(216,228,255)" fill-opacity="0.47"/><circle cx="654.4" cy="549.6" r="0.47" fill="rgb(201,216,255)" fill-opacity="0.22"/><circle cx="567.0" cy="315.4" r="0.60" fill="rgb(204,218,255)" fill-opacity="0.27"/><circle cx="687.3" cy="367.0" r="1.99" fill="rgb(233,241,255)" fill-opacity="0.73"/><circle cx="471.4" cy="552.5" r="0.56" fill="rgb(203,217,255)" fill-opacity="0.25"/><circle cx="495.6" cy="51.3" r="1.25" fill="rgb(217,229,255)" fill-opacity="0.48"/><circle cx="70.2" cy="238.0" r="1.46" fill="rgb(222,232,255)" fill-opacity="0.55"/><circle cx="674.6" cy="271.1" r="1.79" fill="rgb(228,238,255)" fill-opacity="0.66"/><circle cx="324.5" cy="509.1" r="1.97" fill="rgb(232,241,255)" fill-opacity="0.72"/><circle cx="90.4" cy="0.8" r="1.57" fill="rgb(224,234,255)" fill-opacity="0.59"/><circle cx="168.7" cy="69.2" r="0.83" fill="rgb(208,222,255)" fill-opacity="0.34"/><circle cx="701.9" cy="148.0" r="0.59" fill="rgb(203,218,255)" fill-opacity="0.26"/><circle cx="574.4" cy="96.3" r="1.00" fill="rgb(212,225,255)" fill-opacity="0.40"/><circle cx="81.7" cy="94.5" r="1.95" fill="rgb(232,240,255)" fill-opacity="0.72"/><circle cx="518.7" cy="169.2" r="1.11" fill="rgb(214,226,255)" fill-opacity="0.44"/><circle cx="717.3" cy="241.9" r="0.48" fill="rgb(201,216,255)" fill-opacity="0.23"/><circle cx="240.2" cy="472.7" r="1.16" fill="rgb(215,227,255)" fill-opacity="0.45"/><circle cx="681.9" cy="328.8" r="0.96" fill="rgb(211,224,255)" fill-opacity="0.39"/><circle cx="451.0" cy="180.2" r="0.98" fill="rgb(212,224,255)" fill-opacity="0.39"/><circle cx="116.8" cy="25.9" r="1.31" fill="rgb(218,230,255)" fill-opacity="0.50"/><circle cx="558.0" cy="288.7" r="0.59" fill="rgb(203,218,255)" fill-opacity="0.26"/><circle cx="277.9" cy="348.8" r="0.90" fill="rgb(210,223,255)" fill-opacity="0.37"/><circle cx="320.0" cy="449.7" r="0.50" fill="rgb(202,216,255)" fill-opacity="0.23"/><circle cx="605.0" cy="420.9" r="0.68" fill="rgb(205,219,255)" fill-opacity="0.29"/><circle cx="313.7" cy="511.2" r="0.67" fill="rgb(205,219,255)" fill-opacity="0.29"/><circle cx="838.2" cy="497.2" r="1.96" fill="rgb(232,241,255)" fill-opacity="0.72"/><circle cx="293.2" cy="310.7" r="1.42" fill="rgb(221,232,255)" fill-opacity="0.54"/><circle cx="199.9" cy="73.1" r="0.77" fill="rgb(207,221,255)" fill-opacity="0.32"/><circle cx="66.6" cy="179.2" r="1.87" fill="rgb(230,239,255)" fill-opacity="0.69"/><circle cx="294.6" cy="473.1" r="0.96" fill="rgb(211,224,255)" fill-opacity="0.39"/><circle cx="228.4" cy="584.9" r="1.79" fill="rgb(228,238,255)" fill-opacity="0.66"/><circle cx="268.6" cy="164.6" r="1.45" fill="rgb(221,232,255)" fill-opacity="0.55"/><circle cx="578.0" cy="381.0" r="0.42" fill="rgb(200,215,255)" fill-opacity="0.21"/><circle cx="653.1" cy="299.9" r="1.25" fill="rgb(217,229,255)" fill-opacity="0.48"/><circle cx="597.8" cy="277.1" r="0.65" fill="rgb(205,219,255)" fill-opacity="0.28"/><circle cx="490.9" cy="491.0" r="0.51" fill="rgb(202,216,255)" fill-opacity="0.24"/><circle cx="475.4" cy="524.1" r="0.57" fill="rgb(203,217,255)" fill-opacity="0.26"/><circle cx="524.8" cy="153.2" r="1.06" fill="rgb(213,226,255)" fill-opacity="0.42"/><circle cx="589.7" cy="583.9" r="0.84" fill="rgb(209,222,255)" fill-opacity="0.35"/><circle cx="371.0" cy="531.7" r="0.67" fill="rgb(205,219,255)" fill-opacity="0.29"/><circle cx="431.6" cy="126.8" r="0.70" fill="rgb(206,219,255)" fill-opacity="0.30"/><circle cx="312.9" cy="447.6" r="1.14" fill="rgb(215,227,255)" fill-opacity="0.45"/><circle cx="243.0" cy="242.9" r="0.82" fill="rgb(208,222,255)" fill-opacity="0.34"/><circle cx="164.3" cy="358.8" r="0.92" fill="rgb(210,223,255)" fill-opacity="0.37"/><circle cx="535.3" cy="465.4" r="0.79" fill="rgb(208,221,255)" fill-opacity="0.33"/><circle cx="403.8" cy="382.7" r="0.43" fill="rgb(200,215,255)" fill-opacity="0.21"/><circle cx="336.4" cy="447.2" r="0.99" fill="rgb(212,224,255)" fill-opacity="0.40"/><circle cx="352.1" cy="389.1" r="1.09" fill="rgb(214,226,255)" fill-opacity="0.43"/><circle cx="226.3" cy="505.4" r="0.64" fill="rgb(205,219,255)" fill-opacity="0.28"/><circle cx="730.2" cy="146.0" r="0.68" fill="rgb(205,219,255)" fill-opacity="0.29"/><circle cx="790.2" cy="304.7" r="0.98" fill="rgb(212,224,255)" fill-opacity="0.39"/><circle cx="648.5" cy="489.9" r="0.53" fill="rgb(202,217,255)" fill-opacity="0.24"/><circle cx="280.0" cy="28.3" r="1.20" fill="rgb(216,228,255)" fill-opacity="0.47"/><circle cx="717.4" cy="302.8" r="0.89" fill="rgb(210,223,255)" fill-opacity="0.36"/><circle cx="644.4" cy="137.6" r="1.00" fill="rgb(212,224,255)" fill-opacity="0.40"/><circle cx="234.6" cy="441.9" r="0.92" fill="rgb(210,223,255)" fill-opacity="0.37"/><circle cx="636.0" cy="171.7" r="0.51" fill="rgb(202,216,255)" fill-opacity="0.24"/><circle cx="70.5" cy="169.7" r="1.70" fill="rgb(227,236,255)" fill-opacity="0.63"/><circle cx="353.2" cy="317.2" r="0.73" fill="rgb(206,220,255)" fill-opacity="0.31"/><circle cx="223.4" cy="341.7" r="1.48" fill="rgb(222,233,255)" fill-opacity="0.56"/><circle cx="688.2" cy="102.8" r="1.75" fill="rgb(228,237,255)" fill-opacity="0.65"/><circle cx="641.5" cy="143.2" r="0.52" fill="rgb(202,217,255)" fill-opacity="0.24"/><circle cx="502.6" cy="162.5" r="0.80" fill="rgb(208,221,255)" fill-opacity="0.33"/><circle cx="300.1" cy="476.0" r="1.03" fill="rgb(213,225,255)" fill-opacity="0.41"/><circle cx="697.5" cy="19.1" r="0.63" fill="rgb(204,218,255)" fill-opacity="0.28"/><circle cx="806.6" cy="484.3" r="1.16" fill="rgb(215,227,255)" fill-opacity="0.45"/><circle cx="122.5" cy="563.1" r="1.22" fill="rgb(217,228,255)" fill-opacity="0.47"/><circle cx="295.1" cy="456.0" r="1.10" fill="rgb(214,226,255)" fill-opacity="0.43"/><circle cx="701.9" cy="102.1" r="0.71" fill="rgb(206,220,255)" fill-opacity="0.30"/><circle cx="484.0" cy="362.1" r="1.06" fill="rgb(213,225,255)" fill-opacity="0.42"/><circle cx="466.4" cy="118.3" r="1.40" fill="rgb(220,231,255)" fill-opacity="0.53"/><circle cx="251.7" cy="360.7" r="1.51" fill="rgb(223,233,255)" fill-opacity="0.57"/><circle cx="378.2" cy="353.6" r="0.68" fill="rgb(205,219,255)" fill-opacity="0.29"/><circle cx="342.0" cy="402.3" r="1.17" fill="rgb(216,227,255)" fill-opacity="0.46"/><circle cx="751.6" cy="82.6" r="0.86" fill="rgb(209,222,255)" fill-opacity="0.35"/><circle cx="195.7" cy="520.7" r="1.58" fill="rgb(224,234,255)" fill-opacity="0.59"/><circle cx="525.0" cy="446.1" r="0.62" fill="rgb(204,218,255)" fill-opacity="0.27"/><circle cx="357.4" cy="221.6" r="2.26" fill="rgb(238,246,255)" fill-opacity="0.82"/><circle cx="661.0" cy="428.9" r="0.72" fill="rgb(206,220,255)" fill-opacity="0.31"/><circle cx="518.4" cy="338.8" r="1.24" fill="rgb(217,229,255)" fill-opacity="0.48"/><circle cx="718.8" cy="158.8" r="2.08" fill="rgb(234,242,255)" fill-opacity="0.76"/><circle cx="394.7" cy="159.8" r="0.69" fill="rgb(206,219,255)" fill-opacity="0.30"/><circle cx="538.9" cy="73.2" r="0.86" fill="rgb(209,222,255)" fill-opacity="0.35"/><circle cx="596.8" cy="203.5" r="0.46" fill="rgb(201,216,255)" fill-opacity="0.22"/><circle cx="251.6" cy="37.2" r="1.01" fill="rgb(212,225,255)" fill-opacity="0.40"/><circle cx="938.0" cy="371.8" r="1.48" fill="rgb(222,232,255)" fill-opacity="0.56"/><circle cx="229.0" cy="94.8" r="1.22" fill="rgb(217,228,255)" fill-opacity="0.47"/><circle cx="658.6" cy="351.8" r="2.12" fill="rgb(235,243,255)" fill-opacity="0.77"/><circle cx="361.4" cy="33.2" r="0.69" fill="rgb(206,219,255)" fill-opacity="0.30"/><circle cx="613.0" cy="115.6" r="0.96" fill="rgb(211,224,255)" fill-opacity="0.39"/><circle cx="549.2" cy="351.0" r="1.25" fill="rgb(217,229,255)" fill-opacity="0.48"/><circle cx="290.1" cy="359.0" r="0.42" fill="rgb(200,215,255)" fill-opacity="0.21"/><circle cx="138.3" cy="501.9" r="1.36" fill="rgb(219,230,255)" fill-opacity="0.52"/><circle cx="223.7" cy="56.3" r="0.58" fill="rgb(203,217,255)" fill-opacity="0.26"/><circle cx="508.1" cy="76.3" r="1.32" fill="rgb(219,230,255)" fill-opacity="0.51"/><circle cx="667.2" cy="252.5" r="1.08" fill="rgb(214,226,255)" fill-opacity="0.43"/><circle cx="331.6" cy="352.2" r="0.94" fill="rgb(211,224,255)" fill-opacity="0.38"/><circle cx="650.5" cy="358.7" r="0.40" fill="rgb(200,215,255)" fill-opacity="0.20"/><circle cx="768.6" cy="452.4" r="0.86" fill="rgb(209,222,255)" fill-opacity="0.35"/><circle cx="861.9" cy="226.7" r="1.30" fill="rgb(218,230,255)" fill-opacity="0.50"/><circle cx="233.6" cy="531.9" r="0.42" fill="rgb(200,215,255)" fill-opacity="0.21"/><circle cx="719.3" cy="295.5" r="1.57" fill="rgb(224,234,255)" fill-opacity="0.59"/><circle cx="438.3" cy="509.2" r="0.79" fill="rgb(208,221,255)" fill-opacity="0.33"/><circle cx="286.4" cy="226.8" r="0.66" fill="rgb(205,219,255)" fill-opacity="0.29"/><circle cx="239.9" cy="450.4" r="0.70" fill="rgb(206,220,255)" fill-opacity="0.30"/><circle cx="801.3" cy="542.8" r="1.81" fill="rgb(229,238,255)" fill-opacity="0.67"/><circle cx="731.2" cy="385.3" r="0.49" fill="rgb(201,216,255)" fill-opacity="0.23"/><circle cx="417.2" cy="509.8" r="0.90" fill="rgb(210,223,255)" fill-opacity="0.37"/><circle cx="468.6" cy="215.7" r="0.44" fill="rgb(200,215,255)" fill-opacity="0.21"/><circle cx="628.7" cy="29.1" r="0.99" fill="rgb(212,224,255)" fill-opacity="0.40"/><circle cx="240.2" cy="490.1" r="0.62" fill="rgb(204,218,255)" fill-opacity="0.27"/><circle cx="435.0" cy="110.0" r="1.00" fill="rgb(212,224,255)" fill-opacity="0.40"/><circle cx="234.3" cy="460.0" r="1.04" fill="rgb(213,225,255)" fill-opacity="0.41"/><circle cx="171.6" cy="486.0" r="1.85" fill="rgb(230,239,255)" fill-opacity="0.68"/><circle cx="665.4" cy="440.0" r="1.70" fill="rgb(227,236,255)" fill-opacity="0.63"/><circle cx="619.6" cy="167.2" r="0.78" fill="rgb(207,221,255)" fill-opacity="0.33"/><circle cx="184.3" cy="579.3" r="1.60" fill="rgb(224,234,255)" fill-opacity="0.60"/><circle cx="640.5" cy="445.2" r="1.16" fill="rgb(215,227,255)" fill-opacity="0.45"/><circle cx="395.7" cy="52.2" r="1.23" fill="rgb(217,228,255)" fill-opacity="0.48"/><circle cx="351.9" cy="336.1" r="1.75" fill="rgb(228,237,255)" fill-opacity="0.65"/><circle cx="779.2" cy="460.8" r="0.86" fill="rgb(209,222,255)" fill-opacity="0.35"/><circle cx="729.4" cy="486.4" r="0.49" fill="rgb(201,216,255)" fill-opacity="0.23"/><circle cx="236.7" cy="388.0" r="0.46" fill="rgb(201,216,255)" fill-opacity="0.22"/><circle cx="775.3" cy="38.8" r="1.14" fill="rgb(215,227,255)" fill-opacity="0.45"/><circle cx="235.2" cy="508.3" r="1.20" fill="rgb(216,228,255)" fill-opacity="0.47"/><circle cx="555.6" cy="598.4" r="0.78" fill="rgb(207,221,255)" fill-opacity="0.33"/><circle cx="667.2" cy="134.2" r="1.66" fill="rgb(226,235,255)" fill-opacity="0.62"/><circle cx="539.3" cy="434.7" r="0.57" fill="rgb(203,217,255)" fill-opacity="0.26"/><circle cx="298.9" cy="180.5" r="0.72" fill="rgb(206,220,255)" fill-opacity="0.31"/><circle cx="132.7" cy="490.2" r="1.68" fill="rgb(226,236,255)" fill-opacity="0.63"/><circle cx="229.0" cy="532.1" r="1.34" fill="rgb(219,230,255)" fill-opacity="0.51"/><circle cx="588.9" cy="597.5" r="1.38" fill="rgb(220,231,255)" fill-opacity="0.53"/><circle cx="778.9" cy="494.9" r="1.52" fill="rgb(223,233,255)" fill-opacity="0.57"/><circle cx="574.7" cy="37.8" r="0.99" fill="rgb(212,224,255)" fill-opacity="0.40"/><circle cx="914.6" cy="341.6" r="1.91" fill="rgb(231,240,255)" fill-opacity="0.70"/><circle cx="331.1" cy="374.7" r="0.54" fill="rgb(202,217,255)" fill-opacity="0.25"/><circle cx="754.5" cy="248.8" r="2.04" fill="rgb(234,242,255)" fill-opacity="0.75"/><circle cx="548.7" cy="265.2" r="0.73" fill="rgb(206,220,255)" fill-opacity="0.31"/><circle cx="266.1" cy="584.4" r="1.10" fill="rgb(214,226,255)" fill-opacity="0.43"/><circle cx="147.5" cy="139.1" r="1.78" fill="rgb(228,238,255)" fill-opacity="0.66"/><circle cx="698.4" cy="107.3" r="0.48" fill="rgb(201,216,255)" fill-opacity="0.23"/><circle cx="238.1" cy="509.2" r="0.53" fill="rgb(202,217,255)" fill-opacity="0.24"/><circle cx="342.5" cy="0.1" r="0.89" fill="rgb(210,223,255)" fill-opacity="0.36"/><circle cx="304.1" cy="333.0" r="1.25" fill="rgb(217,229,255)" fill-opacity="0.48"/><circle cx="353.6" cy="506.5" r="0.96" fill="rgb(211,224,255)" fill-opacity="0.39"/><circle cx="367.8" cy="23.8" r="0.76" fill="rgb(207,220,255)" fill-opacity="0.32"/><circle cx="200.8" cy="540.7" r="1.01" fill="rgb(212,225,255)" fill-opacity="0.40"/><circle cx="498.9" cy="592.8" r="0.73" fill="rgb(206,220,255)" fill-opacity="0.31"/><circle cx="555.1" cy="301.3" r="0.58" fill="rgb(203,217,255)" fill-opacity="0.26"/><circle cx="585.6" cy="496.7" r="1.62" fill="rgb(225,235,255)" fill-opacity="0.61"/><circle cx="700.3" cy="410.7" r="1.17" fill="rgb(216,227,255)" fill-opacity="0.46"/><circle cx="409.4" cy="446.8" r="2.07" fill="rgb(234,242,255)" fill-opacity="0.76"/><circle cx="432.6" cy="441.6" r="0.87" fill="rgb(209,222,255)" fill-opacity="0.36"/><circle cx="774.0" cy="303.9" r="1.07" fill="rgb(213,226,255)" fill-opacity="0.42"/><circle cx="469.2" cy="473.3" r="0.76" fill="rgb(207,221,255)" fill-opacity="0.32"/><circle cx="426.4" cy="220.4" r="1.75" fill="rgb(228,237,255)" fill-opacity="0.65"/><circle cx="249.7" cy="154.2" r="0.99" fill="rgb(212,224,255)" fill-opacity="0.40"/><circle cx="632.4" cy="70.1" r="0.87" fill="rgb(209,222,255)" fill-opacity="0.36"/><circle cx="399.4" cy="170.8" r="0.86" fill="rgb(209,222,255)" fill-opacity="0.35"/><circle cx="305.3" cy="346.7" r="0.72" fill="rgb(206,220,255)" fill-opacity="0.31"/><circle cx="312.0" cy="428.5" r="1.38" fill="rgb(220,231,255)" fill-opacity="0.53"/><circle cx="208.4" cy="35.1" r="1.81" fill="rgb(229,238,255)" fill-opacity="0.67"/><circle cx="385.9" cy="49.7" r="1.07" fill="rgb(213,226,255)" fill-opacity="0.42"/><circle cx="250.8" cy="521.8" r="1.74" fill="rgb(227,237,255)" fill-opacity="0.65"/><circle cx="232.6" cy="223.5" r="0.84" fill="rgb(209,222,255)" fill-opacity="0.35"/><circle cx="840.2" cy="49.5" r="1.42" fill="rgb(221,231,255)" fill-opacity="0.54"/><circle cx="263.8" cy="284.3" r="0.85" fill="rgb(209,222,255)" fill-opacity="0.35"/><circle cx="149.7" cy="284.0" r="1.16" fill="rgb(215,227,255)" fill-opacity="0.45"/><circle cx="325.0" cy="501.3" r="1.58" fill="rgb(224,234,255)" fill-opacity="0.59"/><circle cx="269.0" cy="519.5" r="1.10" fill="rgb(214,226,255)" fill-opacity="0.43"/><circle cx="770.4" cy="51.3" r="1.00" fill="rgb(212,225,255)" fill-opacity="0.40"/><circle cx="394.1" cy="241.0" r="0.50" fill="rgb(202,216,255)" fill-opacity="0.23"/><circle cx="629.2" cy="19.5" r="1.52" fill="rgb(223,233,255)" fill-opacity="0.57"/><circle cx="746.4" cy="252.4" r="0.91" fill="rgb(210,223,255)" fill-opacity="0.37"/><circle cx="71.2" cy="511.9" r="1.34" fill="rgb(219,230,255)" fill-opacity="0.51"/><circle cx="28.3" cy="419.4" r="1.62" fill="rgb(225,235,255)" fill-opacity="0.61"/><circle cx="620.3" cy="312.5" r="0.84" fill="rgb(209,222,255)" fill-opacity="0.35"/><circle cx="521.9" cy="536.2" r="1.15" fill="rgb(215,227,255)" fill-opacity="0.45"/><circle cx="309.3" cy="379.6" r="0.65" fill="rgb(205,219,255)" fill-opacity="0.28"/><circle cx="699.7" cy="124.7" r="1.25" fill="rgb(217,229,255)" fill-opacity="0.48"/><circle cx="412.5" cy="289.7" r="1.12" fill="rgb(215,227,255)" fill-opacity="0.44"/><circle cx="39.3" cy="496.6" r="2.02" fill="rgb(233,242,255)" fill-opacity="0.74"/><circle cx="425.9" cy="572.7" r="2.36" fill="rgb(240,247,255)" fill-opacity="0.85"/><circle cx="649.1" cy="128.0" r="0.90" fill="rgb(210,223,255)" fill-opacity="0.37"/><circle cx="467.6" cy="107.4" r="0.59" fill="rgb(203,218,255)" fill-opacity="0.26"/><circle cx="196.3" cy="3.9" r="1.57" fill="rgb(224,234,255)" fill-opacity="0.59"/><circle cx="503.8" cy="521.0" r="1.10" fill="rgb(214,226,255)" fill-opacity="0.43"/><circle cx="317.4" cy="443.2" r="1.41" fill="rgb(220,231,255)" fill-opacity="0.54"/><circle cx="642.5" cy="84.7" r="1.33" fill="rgb(219,230,255)" fill-opacity="0.51"/><circle cx="328.1" cy="188.5" r="1.48" fill="rgb(222,232,255)" fill-opacity="0.56"/><circle cx="336.1" cy="205.3" r="1.28" fill="rgb(218,229,255)" fill-opacity="0.49"/><circle cx="462.8" cy="583.8" r="0.89" fill="rgb(210,223,255)" fill-opacity="0.36"/><circle cx="301.4" cy="237.0" r="2.09" fill="rgb(235,243,255)" fill-opacity="0.76"/><circle cx="414.6" cy="358.9" r="0.54" fill="rgb(202,217,255)" fill-opacity="0.25"/><circle cx="833.5" cy="129.0" r="1.65" fill="rgb(226,235,255)" fill-opacity="0.62"/><circle cx="274.7" cy="387.7" r="0.60" fill="rgb(204,218,255)" fill-opacity="0.27"/><circle cx="377.8" cy="110.1" r="0.97" fill="rgb(211,224,255)" fill-opacity="0.39"/><circle cx="15.1" cy="218.7" r="1.50" fill="rgb(222,233,255)" fill-opacity="0.57"/><circle cx="253.2" cy="531.5" r="0.84" fill="rgb(209,222,255)" fill-opacity="0.35"/><circle cx="711.7" cy="253.7" r="0.45" fill="rgb(201,215,255)" fill-opacity="0.22"/><circle cx="36.9" cy="405.0" r="1.53" fill="rgb(223,233,255)" fill-opacity="0.58"/><circle cx="775.4" cy="340.9" r="0.91" fill="rgb(210,223,255)" fill-opacity="0.37"/><circle cx="528.1" cy="552.9" r="0.53" fill="rgb(202,217,255)" fill-opacity="0.24"/><circle cx="652.9" cy="408.2" r="1.89" fill="rgb(231,239,255)" fill-opacity="0.70"/><circle cx="380.7" cy="276.3" r="0.42" fill="rgb(200,215,255)" fill-opacity="0.21"/><circle cx="630.6" cy="464.8" r="0.49" fill="rgb(201,216,255)" fill-opacity="0.23"/><circle cx="553.0" cy="48.4" r="0.82" fill="rgb(208,222,255)" fill-opacity="0.34"/><circle cx="606.9" cy="10.2" r="0.81" fill="rgb(208,221,255)" fill-opacity="0.34"/><circle cx="304.6" cy="60.3" r="1.37" fill="rgb(220,231,255)" fill-opacity="0.52"/><circle cx="542.2" cy="310.1" r="1.41" fill="rgb(221,231,255)" fill-opacity="0.54"/><circle cx="643.9" cy="245.2" r="1.50" fill="rgb(222,233,255)" fill-opacity="0.57"/><circle cx="515.9" cy="490.3" r="0.90" fill="rgb(210,223,255)" fill-opacity="0.37"/><circle cx="644.4" cy="149.6" r="1.26" fill="rgb(217,229,255)" fill-opacity="0.49"/><circle cx="894.5" cy="394.8" r="2.03" fill="rgb(233,242,255)" fill-opacity="0.74"/><circle cx="584.6" cy="559.2" r="0.74" fill="rgb(207,220,255)" fill-opacity="0.31"/><circle cx="15.2" cy="288.7" r="1.63" fill="rgb(225,235,255)" fill-opacity="0.61"/><circle cx="446.8" cy="332.0" r="1.87" fill="rgb(230,239,255)" fill-opacity="0.69"/><circle cx="665.7" cy="429.6" r="0.89" fill="rgb(210,223,255)" fill-opacity="0.36"/><circle cx="132.7" cy="305.1" r="1.46" fill="rgb(222,232,255)" fill-opacity="0.55"/><circle cx="641.4" cy="593.6" r="1.27" fill="rgb(218,229,255)" fill-opacity="0.49"/><circle cx="341.6" cy="292.2" r="0.65" fill="rgb(205,219,255)" fill-opacity="0.28"/><circle cx="57.9" cy="376.7" r="1.64" fill="rgb(225,235,255)" fill-opacity="0.61"/><circle cx="316.6" cy="234.4" r="0.52" fill="rgb(202,217,255)" fill-opacity="0.24"/><circle cx="374.2" cy="417.5" r="0.71" fill="rgb(206,220,255)" fill-opacity="0.30"/><circle cx="723.4" cy="599.8" r="1.27" fill="rgb(218,229,255)" fill-opacity="0.49"/><circle cx="498.4" cy="112.6" r="0.43" fill="rgb(200,215,255)" fill-opacity="0.21"/><circle cx="193.9" cy="362.0" r="0.97" fill="rgb(211,224,255)" fill-opacity="0.39"/><circle cx="387.6" cy="587.2" r="2.38" fill="rgb(241,247,255)" fill-opacity="0.86"/><circle cx="609.9" cy="503.4" r="0.97" fill="rgb(211,224,255)" fill-opacity="0.39"/><circle cx="215.4" cy="31.8" r="1.15" fill="rgb(215,227,255)" fill-opacity="0.45"/><circle cx="121.8" cy="551.4" r="2.14" fill="rgb(236,243,255)" fill-opacity="0.78"/><circle cx="350.1" cy="298.9" r="0.65" fill="rgb(205,219,255)" fill-opacity="0.28"/><circle cx="313.4" cy="89.3" r="0.66" fill="rgb(205,219,255)" fill-opacity="0.29"/><circle cx="616.1" cy="535.9" r="0.87" fill="rgb(209,222,255)" fill-opacity="0.36"/><circle cx="418.6" cy="458.4" r="0.77" fill="rgb(207,221,255)" fill-opacity="0.32"/><circle cx="366.8" cy="349.1" r="1.52" fill="rgb(223,233,255)" fill-opacity="0.57"/><circle cx="158.4" cy="367.6" r="1.35" fill="rgb(219,230,255)" fill-opacity="0.52"/><circle cx="487.9" cy="529.8" r="0.55" fill="rgb(203,217,255)" fill-opacity="0.25"/></g>
  <text x="480" y="258" text-anchor="middle" dominant-baseline="middle" font-size="180" font-weight="800" fill="#dff1ff" style="filter:drop-shadow(0 0 24px rgba(110,200,255,.7))">宙</text>
  <text x="480" y="372" text-anchor="middle" font-size="34" letter-spacing="18" fill="#9fc7e6" font-family="ui-monospace,monospace">S O R A</text>
  <text x="480" y="420" text-anchor="middle" font-size="16" fill="#8aa6c4">a space megademo — 無から</text>
  <text x="480" y="576" text-anchor="middle" font-size="12" fill="#5a7090" font-family="ui-monospace,monospace">na / works / sora — greetings to every stripe in the rock</text>
</svg>
